<svg width="24" height="24" viewBox="0 0 24 24" fill="none" xmlns="http://www.w3.org/2000/svg">
<path d="M15.1605 10.87C15.0605 10.86 14.9405 10.86 14.8305 10.87C12.4505 10.79 10.5605 8.84 10.5605 6.44C10.5605 3.99 12.5405 2 15.0005 2C17.4505 2 19.4405 3.99 19.4405 6.44C19.4305 8.84 17.5405 10.79 15.1605 10.87Z" stroke="#292D32" stroke-width="1.5" stroke-linecap="round" stroke-linejoin="round"/>
<path d="M10.1607 14.56C7.7407 16.18 7.7407 18.82 10.1607 20.43C12.9107 22.27 17.4207 22.27 20.1707 20.43C22.5907 18.81 22.5907 16.17 20.1707 14.56C17.4307 12.73 12.9207 12.73 10.1607 14.56Z" stroke="#292D32" stroke-width="1.5" stroke-linecap="round" stroke-linejoin="round"/>
</svg>
