<?xml version="1.0" standalone="no"?>
<!DOCTYPE svg PUBLIC "-//W3C//DTD SVG 20010904//EN"
 "http://www.w3.org/TR/2001/REC-SVG-20010904/DTD/svg10.dtd">
<svg version="1.0" xmlns="http://www.w3.org/2000/svg"
 width="709.000000pt" height="467.000000pt" viewBox="0 0 709.000000 467.000000"
 preserveAspectRatio="xMidYMid meet">

<g transform="translate(0.000000,467.000000) scale(0.100000,-0.100000)"
fill="#000000" stroke="none">
<path d="M3250 4655 c-25 -7 -115 -37 -200 -67 -85 -31 -172 -59 -193 -62 -68
-12 -103 -61 -186 -256 -201 -473 -306 -726 -443 -1070 -83 -206 -152 -376
-153 -378 -2 -2 -120 -26 -262 -52 -142 -27 -332 -65 -422 -85 -90 -19 -166
-34 -168 -32 -5 5 55 157 408 1043 253 635 299 758 299 801 0 152 -173 146
-275 -10 -34 -53 -247 -572 -546 -1332 -93 -236 -184 -466 -202 -509 l-32 -79
-209 -54 c-290 -74 -553 -150 -604 -174 -55 -27 -68 -51 -53 -98 18 -61 63
-105 132 -131 66 -24 67 -25 174 -145 78 -88 135 -129 213 -151 28 -9 52 -18
52 -20 0 -3 -50 -141 -111 -307 -210 -570 -386 -1074 -394 -1131 -9 -58 1
-100 32 -136 44 -53 128 -38 191 35 46 52 53 69 164 378 55 155 158 437 228
627 70 190 147 397 170 460 24 63 46 118 49 121 6 7 830 189 855 189 12 0 8
-21 -21 -97 -223 -610 -469 -1380 -480 -1503 -4 -49 -2 -60 27 -102 17 -26 59
-70 93 -99 34 -28 101 -92 148 -140 80 -83 88 -89 126 -89 29 0 46 6 62 24 15
16 72 167 166 443 194 567 375 1074 558 1557 l63 169 87 28 c165 54 222 96
333 245 46 62 112 136 145 166 124 108 137 123 149 166 20 76 -12 125 -94 142
-39 9 -83 8 -191 -4 -77 -8 -141 -13 -143 -11 -3 2 112 300 253 662 142 362
277 710 301 774 72 194 77 249 27 289 -29 23 -58 24 -123 5z"/>
<path d="M6874 4640 c-39 -10 -111 -35 -160 -56 -49 -20 -114 -43 -144 -51
-171 -46 -187 -70 -513 -753 -358 -752 -579 -1255 -853 -1939 -74 -184 -137
-337 -140 -340 -8 -8 4 266 22 514 20 268 52 540 119 1020 105 749 146 1095
160 1352 11 182 -10 223 -111 223 -57 0 -164 -30 -234 -65 -25 -12 -99 -42
-164 -65 -216 -76 -218 -78 -329 -385 -317 -873 -840 -2530 -1100 -3490 -68
-247 -71 -264 -57 -317 37 -137 181 -124 255 22 12 25 46 126 74 225 219 754
588 1948 762 2465 l109 325 -6 -115 c-6 -131 -28 -388 -78 -900 -55 -563 -61
-656 -61 -990 1 -445 8 -475 167 -650 52 -58 113 -133 136 -167 24 -35 51 -67
62 -73 30 -16 75 -12 102 10 29 23 42 51 179 410 306 803 726 1791 1060 2491
40 87 75 156 77 154 1 -1 -40 -215 -93 -476 -223 -1118 -448 -2367 -462 -2571
l-6 -88 44 -42 c24 -24 80 -71 125 -106 45 -34 101 -87 125 -118 55 -69 94
-94 147 -94 44 0 76 24 85 63 3 12 83 414 177 892 308 1563 552 2746 681 3305
68 292 67 365 -5 390 -40 14 -69 12 -152 -10z"/>
<path d="M2888 1996 c-112 -31 -189 -137 -187 -260 0 -28 13 -94 27 -146 l27
-95 -108 -120 c-82 -91 -118 -140 -150 -204 -41 -82 -42 -87 -42 -185 0 -110
16 -157 74 -219 49 -54 97 -72 191 -72 92 0 126 12 222 81 l47 33 11 -34 c24
-72 107 -108 150 -65 28 28 26 83 -6 170 -14 38 -22 76 -18 83 5 6 28 39 52
72 58 78 82 130 82 183 0 55 -26 82 -78 82 -40 0 -67 -14 -119 -63 l-31 -29
-31 98 c-27 88 -29 101 -16 119 8 11 44 58 80 105 110 143 144 238 115 325
-36 109 -171 175 -292 141z m84 -183 c29 -26 22 -65 -23 -122 -26 -33 -45 -49
-51 -43 -5 5 -12 36 -15 68 -4 50 -2 63 17 87 25 31 46 34 72 10z m-107 -654
c26 -78 26 -81 9 -95 -50 -38 -86 -55 -111 -52 -23 2 -29 8 -31 35 -2 17 4 46
14 64 15 29 85 129 90 129 1 0 14 -36 29 -81z"/>
</g>
</svg>
