<svg width="324" height="98" viewBox="0 0 324 98" fill="none" xmlns="http://www.w3.org/2000/svg">
<g filter="url(#filter0_d_192_300)">
<path d="M10 12C10 8.68629 12.6863 6 16 6H308C311.314 6 314 8.68629 314 12V64.6358C314 67.9495 311.314 70.6358 308 70.6358H75.5408C73.964 70.6358 72.4506 71.2565 71.3279 72.3636L61.6875 81.8705C59.3614 84.1644 55.6275 84.1757 53.2876 81.8959L43.4774 72.3382C42.357 71.2466 40.8546 70.6358 39.2904 70.6358H16C12.6863 70.6358 10 67.9495 10 64.6358V12Z" fill="#EBF2FF"/>
</g>
<path d="M41.7539 19.3359V30H40.3403V19.3359H41.7539ZM45.4746 23.7671V30H44.1196V22.0752H45.4014L45.4746 23.7671ZM45.1523 25.7373L44.5884 25.7153C44.5933 25.1733 44.6738 24.6729 44.8301 24.2139C44.9863 23.75 45.2061 23.3472 45.4893 23.0054C45.7725 22.6636 46.1094 22.3999 46.5 22.2144C46.8955 22.0239 47.3325 21.9287 47.811 21.9287C48.2017 21.9287 48.5532 21.9824 48.8657 22.0898C49.1782 22.1924 49.4443 22.3584 49.6641 22.5879C49.8887 22.8174 50.0596 23.1152 50.1768 23.4814C50.2939 23.8428 50.3525 24.2847 50.3525 24.8071V30H48.9902V24.7925C48.9902 24.3774 48.9292 24.0454 48.8071 23.7964C48.6851 23.5425 48.5068 23.3594 48.2725 23.2471C48.0381 23.1299 47.75 23.0713 47.4082 23.0713C47.0713 23.0713 46.7637 23.1421 46.4854 23.2837C46.2119 23.4253 45.9751 23.6206 45.7749 23.8696C45.5796 24.1187 45.4258 24.4043 45.3135 24.7266C45.2061 25.0439 45.1523 25.3809 45.1523 25.7373ZM55.582 29.0332C55.9043 29.0332 56.2021 28.9673 56.4756 28.8354C56.749 28.7036 56.9736 28.5229 57.1494 28.2935C57.3252 28.0591 57.4253 27.793 57.4497 27.4951H58.7388C58.7144 27.9639 58.5557 28.4009 58.2627 28.8062C57.9746 29.2065 57.5962 29.5312 57.1274 29.7803C56.6587 30.0244 56.1436 30.1465 55.582 30.1465C54.9863 30.1465 54.4663 30.0415 54.022 29.8315C53.5825 29.6216 53.2163 29.3335 52.9233 28.9673C52.6353 28.6011 52.418 28.1812 52.2715 27.7075C52.1299 27.229 52.0591 26.7236 52.0591 26.1914V25.8838C52.0591 25.3516 52.1299 24.8486 52.2715 24.375C52.418 23.8965 52.6353 23.4741 52.9233 23.1079C53.2163 22.7417 53.5825 22.4536 54.022 22.2437C54.4663 22.0337 54.9863 21.9287 55.582 21.9287C56.2021 21.9287 56.7441 22.0557 57.208 22.3096C57.6719 22.5586 58.0356 22.9004 58.2993 23.335C58.5679 23.7646 58.7144 24.2529 58.7388 24.7998H57.4497C57.4253 24.4727 57.3325 24.1772 57.1714 23.9136C57.0151 23.6499 56.8003 23.4399 56.5269 23.2837C56.2583 23.1226 55.9434 23.042 55.582 23.042C55.167 23.042 54.8179 23.125 54.5347 23.291C54.2563 23.4521 54.0342 23.6719 53.8682 23.9502C53.707 24.2236 53.5898 24.5288 53.5166 24.8657C53.4482 25.1978 53.4141 25.5371 53.4141 25.8838V26.1914C53.4141 26.5381 53.4482 26.8799 53.5166 27.2168C53.585 27.5537 53.6997 27.8589 53.8608 28.1323C54.0269 28.4058 54.249 28.6255 54.5273 28.7915C54.8105 28.9526 55.1621 29.0332 55.582 29.0332ZM59.9033 26.1255V25.957C59.9033 25.3857 59.9863 24.856 60.1523 24.3677C60.3184 23.8745 60.5576 23.4473 60.8701 23.0859C61.1826 22.7197 61.561 22.4365 62.0054 22.2363C62.4497 22.0312 62.9478 21.9287 63.4995 21.9287C64.0562 21.9287 64.5566 22.0312 65.001 22.2363C65.4502 22.4365 65.8311 22.7197 66.1436 23.0859C66.4609 23.4473 66.7026 23.8745 66.8687 24.3677C67.0347 24.856 67.1177 25.3857 67.1177 25.957V26.1255C67.1177 26.6968 67.0347 27.2266 66.8687 27.7148C66.7026 28.2031 66.4609 28.6304 66.1436 28.9966C65.8311 29.3579 65.4526 29.6411 65.0083 29.8462C64.5688 30.0464 64.0708 30.1465 63.5142 30.1465C62.9575 30.1465 62.457 30.0464 62.0127 29.8462C61.5684 29.6411 61.1875 29.3579 60.8701 28.9966C60.5576 28.6304 60.3184 28.2031 60.1523 27.7148C59.9863 27.2266 59.9033 26.6968 59.9033 26.1255ZM61.2583 25.957V26.1255C61.2583 26.521 61.3047 26.8945 61.3975 27.2461C61.4902 27.5928 61.6294 27.9004 61.8149 28.1689C62.0054 28.4375 62.2422 28.6499 62.5254 28.8062C62.8086 28.9575 63.1382 29.0332 63.5142 29.0332C63.8853 29.0332 64.21 28.9575 64.4883 28.8062C64.7715 28.6499 65.0059 28.4375 65.1914 28.1689C65.377 27.9004 65.5161 27.5928 65.6089 27.2461C65.7065 26.8945 65.7554 26.521 65.7554 26.1255V25.957C65.7554 25.5664 65.7065 25.1978 65.6089 24.8511C65.5161 24.4995 65.3745 24.1895 65.1841 23.9209C64.9985 23.6475 64.7642 23.4326 64.481 23.2764C64.2026 23.1201 63.8755 23.042 63.4995 23.042C63.1284 23.042 62.8013 23.1201 62.5181 23.2764C62.2397 23.4326 62.0054 23.6475 61.8149 23.9209C61.6294 24.1895 61.4902 24.4995 61.3975 24.8511C61.3047 25.1978 61.2583 25.5664 61.2583 25.957ZM70.1719 23.3203V30H68.8169V22.0752H70.1353L70.1719 23.3203ZM72.6475 22.0312L72.6401 23.291C72.5278 23.2666 72.4204 23.252 72.3179 23.2471C72.2202 23.2373 72.1079 23.2324 71.981 23.2324C71.6685 23.2324 71.3926 23.2812 71.1533 23.3789C70.9141 23.4766 70.7114 23.6133 70.5454 23.7891C70.3794 23.9648 70.2476 24.1748 70.1499 24.4189C70.0571 24.6582 69.9961 24.9219 69.9668 25.21L69.5859 25.4297C69.5859 24.9512 69.6323 24.502 69.7251 24.082C69.8228 23.6621 69.9717 23.291 70.1719 22.9688C70.3721 22.6416 70.626 22.3877 70.9336 22.207C71.2461 22.0215 71.6172 21.9287 72.0469 21.9287C72.1445 21.9287 72.2568 21.9409 72.3838 21.9653C72.5107 21.9849 72.5986 22.0068 72.6475 22.0312ZM75.2549 23.3203V30H73.8999V22.0752H75.2183L75.2549 23.3203ZM77.7305 22.0312L77.7231 23.291C77.6108 23.2666 77.5034 23.252 77.4009 23.2471C77.3032 23.2373 77.1909 23.2324 77.064 23.2324C76.7515 23.2324 76.4756 23.2812 76.2363 23.3789C75.9971 23.4766 75.7944 23.6133 75.6284 23.7891C75.4624 23.9648 75.3306 24.1748 75.2329 24.4189C75.1401 24.6582 75.0791 24.9219 75.0498 25.21L74.6689 25.4297C74.6689 24.9512 74.7153 24.502 74.8081 24.082C74.9058 23.6621 75.0547 23.291 75.2549 22.9688C75.4551 22.6416 75.709 22.3877 76.0166 22.207C76.3291 22.0215 76.7002 21.9287 77.1299 21.9287C77.2275 21.9287 77.3398 21.9409 77.4668 21.9653C77.5938 21.9849 77.6816 22.0068 77.7305 22.0312ZM82.125 30.1465C81.5732 30.1465 81.0728 30.0537 80.6235 29.8682C80.1792 29.6777 79.7959 29.4116 79.4736 29.0698C79.1562 28.728 78.9121 28.3228 78.7412 27.854C78.5703 27.3853 78.4849 26.8726 78.4849 26.3159V26.0083C78.4849 25.3638 78.5801 24.79 78.7705 24.2871C78.9609 23.7793 79.2197 23.3496 79.5469 22.998C79.874 22.6465 80.2451 22.3804 80.6602 22.1997C81.0752 22.019 81.5049 21.9287 81.9492 21.9287C82.5156 21.9287 83.0039 22.0264 83.4141 22.2217C83.8291 22.417 84.1685 22.6904 84.4321 23.042C84.6958 23.3887 84.8911 23.7988 85.0181 24.2725C85.145 24.7412 85.2085 25.2539 85.2085 25.8105V26.4185H79.2905V25.3125H83.8535V25.21C83.834 24.8584 83.7607 24.5166 83.6338 24.1846C83.5117 23.8525 83.3164 23.5791 83.0479 23.3643C82.7793 23.1494 82.4131 23.042 81.9492 23.042C81.6416 23.042 81.3584 23.1079 81.0996 23.2397C80.8408 23.3667 80.6187 23.5571 80.4331 23.811C80.2476 24.0649 80.1035 24.375 80.001 24.7412C79.8984 25.1074 79.8472 25.5298 79.8472 26.0083V26.3159C79.8472 26.6919 79.8984 27.0459 80.001 27.3779C80.1084 27.7051 80.2622 27.9932 80.4624 28.2422C80.6675 28.4912 80.9141 28.6865 81.2021 28.8281C81.4951 28.9697 81.8271 29.0405 82.1982 29.0405C82.6768 29.0405 83.082 28.9429 83.4141 28.7476C83.7461 28.5522 84.0366 28.291 84.2856 27.9639L85.106 28.6157C84.9351 28.8745 84.7178 29.1211 84.4541 29.3555C84.1904 29.5898 83.8657 29.7803 83.48 29.9268C83.0991 30.0732 82.6475 30.1465 82.125 30.1465ZM89.9619 29.0332C90.2842 29.0332 90.582 28.9673 90.8555 28.8354C91.1289 28.7036 91.3535 28.5229 91.5293 28.2935C91.7051 28.0591 91.8052 27.793 91.8296 27.4951H93.1187C93.0942 27.9639 92.9355 28.4009 92.6426 28.8062C92.3545 29.2065 91.9761 29.5312 91.5073 29.7803C91.0386 30.0244 90.5234 30.1465 89.9619 30.1465C89.3662 30.1465 88.8462 30.0415 88.4019 29.8315C87.9624 29.6216 87.5962 29.3335 87.3032 28.9673C87.0151 28.6011 86.7979 28.1812 86.6514 27.7075C86.5098 27.229 86.439 26.7236 86.439 26.1914V25.8838C86.439 25.3516 86.5098 24.8486 86.6514 24.375C86.7979 23.8965 87.0151 23.4741 87.3032 23.1079C87.5962 22.7417 87.9624 22.4536 88.4019 22.2437C88.8462 22.0337 89.3662 21.9287 89.9619 21.9287C90.582 21.9287 91.124 22.0557 91.5879 22.3096C92.0518 22.5586 92.4155 22.9004 92.6792 23.335C92.9478 23.7646 93.0942 24.2529 93.1187 24.7998H91.8296C91.8052 24.4727 91.7124 24.1772 91.5513 23.9136C91.395 23.6499 91.1802 23.4399 90.9067 23.2837C90.6382 23.1226 90.3232 23.042 89.9619 23.042C89.5469 23.042 89.1978 23.125 88.9146 23.291C88.6362 23.4521 88.4141 23.6719 88.248 23.9502C88.0869 24.2236 87.9697 24.5288 87.8965 24.8657C87.8281 25.1978 87.7939 25.5371 87.7939 25.8838V26.1914C87.7939 26.5381 87.8281 26.8799 87.8965 27.2168C87.9648 27.5537 88.0796 27.8589 88.2407 28.1323C88.4067 28.4058 88.6289 28.6255 88.9072 28.7915C89.1904 28.9526 89.542 29.0332 89.9619 29.0332ZM97.96 22.0752V23.1152H93.6753V22.0752H97.96ZM95.1255 20.1489H96.4805V28.0371C96.4805 28.3057 96.522 28.5083 96.605 28.645C96.688 28.7817 96.7954 28.8721 96.9272 28.916C97.0591 28.96 97.2007 28.9819 97.3521 28.9819C97.4644 28.9819 97.5815 28.9722 97.7036 28.9526C97.8306 28.9282 97.9258 28.9087 97.9893 28.894L97.9966 30C97.8892 30.0342 97.7476 30.0659 97.5718 30.0952C97.4009 30.1294 97.1934 30.1465 96.9492 30.1465C96.6172 30.1465 96.312 30.0806 96.0337 29.9487C95.7554 29.8169 95.5332 29.5972 95.3672 29.2896C95.2061 28.9771 95.1255 28.5571 95.1255 28.0298V20.1489ZM107.408 25.8179H104.559V24.668H107.408C107.96 24.668 108.407 24.5801 108.749 24.4043C109.09 24.2285 109.339 23.9844 109.496 23.6719C109.657 23.3594 109.737 23.0029 109.737 22.6025C109.737 22.2363 109.657 21.8921 109.496 21.5698C109.339 21.2476 109.09 20.9888 108.749 20.7935C108.407 20.5933 107.96 20.4932 107.408 20.4932H104.889V30H103.475V19.3359H107.408C108.214 19.3359 108.895 19.4751 109.452 19.7534C110.008 20.0317 110.431 20.4175 110.719 20.9106C111.007 21.3989 111.151 21.958 111.151 22.5879C111.151 23.2715 111.007 23.855 110.719 24.3384C110.431 24.8218 110.008 25.1904 109.452 25.4443C108.895 25.6934 108.214 25.8179 107.408 25.8179ZM117.318 28.645V24.5654C117.318 24.2529 117.254 23.9819 117.127 23.7524C117.005 23.5181 116.82 23.3374 116.571 23.2104C116.322 23.0835 116.014 23.02 115.648 23.02C115.306 23.02 115.006 23.0786 114.747 23.1958C114.493 23.313 114.293 23.4668 114.146 23.6572C114.005 23.8477 113.934 24.0527 113.934 24.2725H112.579C112.579 23.9893 112.652 23.7085 112.799 23.4302C112.945 23.1519 113.155 22.9004 113.429 22.6758C113.707 22.4463 114.039 22.2656 114.425 22.1338C114.815 21.9971 115.25 21.9287 115.729 21.9287C116.305 21.9287 116.812 22.0264 117.252 22.2217C117.696 22.417 118.043 22.7124 118.292 23.1079C118.546 23.4985 118.673 23.9893 118.673 24.5801V28.2715C118.673 28.5352 118.695 28.8159 118.739 29.1138C118.788 29.4116 118.858 29.668 118.951 29.8828V30H117.538C117.469 29.8438 117.416 29.6362 117.376 29.3774C117.337 29.1138 117.318 28.8696 117.318 28.645ZM117.552 25.1953L117.567 26.1475H116.197C115.812 26.1475 115.467 26.1792 115.165 26.2427C114.862 26.3013 114.608 26.3916 114.403 26.5137C114.198 26.6357 114.042 26.7896 113.934 26.9751C113.827 27.1558 113.773 27.3682 113.773 27.6123C113.773 27.8613 113.829 28.0884 113.941 28.2935C114.054 28.4985 114.222 28.6621 114.447 28.7842C114.676 28.9014 114.957 28.96 115.289 28.96C115.704 28.96 116.07 28.8721 116.388 28.6963C116.705 28.5205 116.957 28.3057 117.142 28.0518C117.333 27.7979 117.435 27.5513 117.45 27.312L118.028 27.9639C117.994 28.1689 117.901 28.396 117.75 28.645C117.599 28.894 117.396 29.1333 117.142 29.3628C116.893 29.5874 116.595 29.7754 116.249 29.9268C115.907 30.0732 115.521 30.1465 115.091 30.1465C114.554 30.1465 114.083 30.0415 113.678 29.8315C113.277 29.6216 112.965 29.3408 112.74 28.9893C112.521 28.6328 112.411 28.2349 112.411 27.7954C112.411 27.3706 112.494 26.9971 112.66 26.6748C112.826 26.3477 113.065 26.0767 113.377 25.8618C113.69 25.6421 114.066 25.4761 114.505 25.3638C114.945 25.2515 115.436 25.1953 115.978 25.1953H117.552ZM125.418 27.8979C125.418 27.7026 125.375 27.522 125.287 27.356C125.204 27.1851 125.03 27.0312 124.767 26.8945C124.508 26.7529 124.117 26.6309 123.595 26.5283C123.155 26.4355 122.757 26.3257 122.401 26.1987C122.049 26.0718 121.749 25.918 121.5 25.7373C121.256 25.5566 121.068 25.3442 120.936 25.1001C120.804 24.856 120.738 24.5703 120.738 24.2432C120.738 23.9307 120.807 23.6353 120.943 23.3569C121.085 23.0786 121.283 22.832 121.537 22.6172C121.795 22.4023 122.105 22.2339 122.467 22.1118C122.828 21.9897 123.231 21.9287 123.675 21.9287C124.31 21.9287 124.852 22.041 125.301 22.2656C125.75 22.4902 126.095 22.7905 126.334 23.1665C126.573 23.5376 126.693 23.9502 126.693 24.4043H125.338C125.338 24.1846 125.272 23.9722 125.14 23.7671C125.013 23.5571 124.825 23.3838 124.576 23.2471C124.332 23.1104 124.032 23.042 123.675 23.042C123.299 23.042 122.994 23.1006 122.76 23.2178C122.53 23.3301 122.362 23.4741 122.254 23.6499C122.152 23.8257 122.101 24.0112 122.101 24.2065C122.101 24.353 122.125 24.4849 122.174 24.6021C122.228 24.7144 122.32 24.8193 122.452 24.917C122.584 25.0098 122.77 25.0977 123.009 25.1807C123.248 25.2637 123.553 25.3467 123.924 25.4297C124.574 25.5762 125.108 25.752 125.528 25.957C125.948 26.1621 126.261 26.4136 126.466 26.7114C126.671 27.0093 126.773 27.3706 126.773 27.7954C126.773 28.1421 126.7 28.4595 126.554 28.7476C126.412 29.0356 126.205 29.2847 125.931 29.4946C125.663 29.6997 125.34 29.8608 124.964 29.978C124.593 30.0903 124.176 30.1465 123.712 30.1465C123.014 30.1465 122.423 30.022 121.939 29.7729C121.456 29.5239 121.09 29.2017 120.841 28.8062C120.592 28.4106 120.467 27.9932 120.467 27.5537H121.83C121.849 27.9248 121.957 28.2202 122.152 28.4399C122.347 28.6548 122.586 28.8086 122.87 28.9014C123.153 28.9893 123.434 29.0332 123.712 29.0332C124.083 29.0332 124.393 28.9844 124.642 28.8867C124.896 28.7891 125.089 28.6548 125.221 28.4839C125.353 28.313 125.418 28.1177 125.418 27.8979ZM133.167 27.8979C133.167 27.7026 133.124 27.522 133.036 27.356C132.953 27.1851 132.779 27.0312 132.516 26.8945C132.257 26.7529 131.866 26.6309 131.344 26.5283C130.904 26.4355 130.506 26.3257 130.15 26.1987C129.798 26.0718 129.498 25.918 129.249 25.7373C129.005 25.5566 128.817 25.3442 128.685 25.1001C128.553 24.856 128.487 24.5703 128.487 24.2432C128.487 23.9307 128.556 23.6353 128.692 23.3569C128.834 23.0786 129.032 22.832 129.286 22.6172C129.544 22.4023 129.854 22.2339 130.216 22.1118C130.577 21.9897 130.98 21.9287 131.424 21.9287C132.059 21.9287 132.601 22.041 133.05 22.2656C133.5 22.4902 133.844 22.7905 134.083 23.1665C134.322 23.5376 134.442 23.9502 134.442 24.4043H133.087C133.087 24.1846 133.021 23.9722 132.889 23.7671C132.762 23.5571 132.574 23.3838 132.325 23.2471C132.081 23.1104 131.781 23.042 131.424 23.042C131.048 23.042 130.743 23.1006 130.509 23.2178C130.279 23.3301 130.111 23.4741 130.003 23.6499C129.901 23.8257 129.85 24.0112 129.85 24.2065C129.85 24.353 129.874 24.4849 129.923 24.6021C129.977 24.7144 130.069 24.8193 130.201 24.917C130.333 25.0098 130.519 25.0977 130.758 25.1807C130.997 25.2637 131.302 25.3467 131.673 25.4297C132.323 25.5762 132.857 25.752 133.277 25.957C133.697 26.1621 134.01 26.4136 134.215 26.7114C134.42 27.0093 134.522 27.3706 134.522 27.7954C134.522 28.1421 134.449 28.4595 134.303 28.7476C134.161 29.0356 133.954 29.2847 133.68 29.4946C133.412 29.6997 133.089 29.8608 132.713 29.978C132.342 30.0903 131.925 30.1465 131.461 30.1465C130.763 30.1465 130.172 30.022 129.688 29.7729C129.205 29.5239 128.839 29.2017 128.59 28.8062C128.341 28.4106 128.216 27.9932 128.216 27.5537H129.579C129.598 27.9248 129.706 28.2202 129.901 28.4399C130.096 28.6548 130.335 28.8086 130.619 28.9014C130.902 28.9893 131.183 29.0332 131.461 29.0332C131.832 29.0332 132.142 28.9844 132.391 28.8867C132.645 28.7891 132.838 28.6548 132.97 28.4839C133.102 28.313 133.167 28.1177 133.167 27.8979ZM138.309 28.5938L140.345 22.0752H141.239L141.063 23.3716L138.99 30H138.119L138.309 28.5938ZM136.939 22.0752L138.675 28.667L138.8 30H137.884L135.584 22.0752H136.939ZM143.187 28.6157L144.842 22.0752H146.19L143.89 30H142.982L143.187 28.6157ZM141.437 22.0752L143.429 28.4839L143.656 30H142.792L140.66 23.3569L140.484 22.0752H141.437ZM147.223 26.1255V25.957C147.223 25.3857 147.306 24.856 147.472 24.3677C147.638 23.8745 147.877 23.4473 148.189 23.0859C148.502 22.7197 148.88 22.4365 149.325 22.2363C149.769 22.0312 150.267 21.9287 150.819 21.9287C151.375 21.9287 151.876 22.0312 152.32 22.2363C152.77 22.4365 153.15 22.7197 153.463 23.0859C153.78 23.4473 154.022 23.8745 154.188 24.3677C154.354 24.856 154.437 25.3857 154.437 25.957V26.1255C154.437 26.6968 154.354 27.2266 154.188 27.7148C154.022 28.2031 153.78 28.6304 153.463 28.9966C153.15 29.3579 152.772 29.6411 152.328 29.8462C151.888 30.0464 151.39 30.1465 150.833 30.1465C150.277 30.1465 149.776 30.0464 149.332 29.8462C148.888 29.6411 148.507 29.3579 148.189 28.9966C147.877 28.6304 147.638 28.2031 147.472 27.7148C147.306 27.2266 147.223 26.6968 147.223 26.1255ZM148.578 25.957V26.1255C148.578 26.521 148.624 26.8945 148.717 27.2461C148.81 27.5928 148.949 27.9004 149.134 28.1689C149.325 28.4375 149.562 28.6499 149.845 28.8062C150.128 28.9575 150.458 29.0332 150.833 29.0332C151.205 29.0332 151.529 28.9575 151.808 28.8062C152.091 28.6499 152.325 28.4375 152.511 28.1689C152.696 27.9004 152.835 27.5928 152.928 27.2461C153.026 26.8945 153.075 26.521 153.075 26.1255V25.957C153.075 25.5664 153.026 25.1978 152.928 24.8511C152.835 24.4995 152.694 24.1895 152.503 23.9209C152.318 23.6475 152.083 23.4326 151.8 23.2764C151.522 23.1201 151.195 23.042 150.819 23.042C150.448 23.042 150.121 23.1201 149.837 23.2764C149.559 23.4326 149.325 23.6475 149.134 23.9209C148.949 24.1895 148.81 24.4995 148.717 24.8511C148.624 25.1978 148.578 25.5664 148.578 25.957ZM157.491 23.3203V30H156.136V22.0752H157.455L157.491 23.3203ZM159.967 22.0312L159.959 23.291C159.847 23.2666 159.74 23.252 159.637 23.2471C159.54 23.2373 159.427 23.2324 159.3 23.2324C158.988 23.2324 158.712 23.2812 158.473 23.3789C158.233 23.4766 158.031 23.6133 157.865 23.7891C157.699 23.9648 157.567 24.1748 157.469 24.4189C157.376 24.6582 157.315 24.9219 157.286 25.21L156.905 25.4297C156.905 24.9512 156.952 24.502 157.044 24.082C157.142 23.6621 157.291 23.291 157.491 22.9688C157.691 22.6416 157.945 22.3877 158.253 22.207C158.565 22.0215 158.937 21.9287 159.366 21.9287C159.464 21.9287 159.576 21.9409 159.703 21.9653C159.83 21.9849 159.918 22.0068 159.967 22.0312ZM166.068 28.4619V18.75H167.43V30H166.185L166.068 28.4619ZM160.736 26.1255V25.9717C160.736 25.3662 160.809 24.8169 160.956 24.3237C161.107 23.8257 161.319 23.3984 161.593 23.042C161.871 22.6855 162.201 22.4121 162.582 22.2217C162.967 22.0264 163.397 21.9287 163.871 21.9287C164.369 21.9287 164.803 22.0166 165.174 22.1924C165.55 22.3633 165.868 22.6147 166.126 22.9468C166.39 23.2739 166.598 23.6694 166.749 24.1333C166.9 24.5972 167.005 25.1221 167.064 25.708V26.3818C167.01 26.9629 166.905 27.4854 166.749 27.9492C166.598 28.4131 166.39 28.8086 166.126 29.1357C165.868 29.4629 165.55 29.7144 165.174 29.8901C164.798 30.061 164.359 30.1465 163.856 30.1465C163.392 30.1465 162.967 30.0464 162.582 29.8462C162.201 29.646 161.871 29.3652 161.593 29.0039C161.319 28.6426 161.107 28.2178 160.956 27.7295C160.809 27.2363 160.736 26.7017 160.736 26.1255ZM162.098 25.9717V26.1255C162.098 26.521 162.137 26.8921 162.215 27.2388C162.298 27.5854 162.425 27.8906 162.596 28.1543C162.767 28.418 162.984 28.6255 163.248 28.7769C163.512 28.9233 163.827 28.9966 164.193 28.9966C164.642 28.9966 165.011 28.9014 165.299 28.7109C165.592 28.5205 165.826 28.269 166.002 27.9565C166.178 27.644 166.314 27.3047 166.412 26.9385V25.1733C166.354 24.9048 166.268 24.646 166.156 24.397C166.048 24.1431 165.907 23.9185 165.731 23.7231C165.56 23.5229 165.348 23.3643 165.094 23.2471C164.845 23.1299 164.549 23.0713 164.208 23.0713C163.836 23.0713 163.517 23.1494 163.248 23.3057C162.984 23.457 162.767 23.667 162.596 23.9355C162.425 24.1992 162.298 24.5068 162.215 24.8584C162.137 25.2051 162.098 25.5762 162.098 25.9717Z" fill="#D8000C"/>
<path d="M43.8262 47.0967H41.167V46.0234H43.8262C44.3411 46.0234 44.7581 45.9414 45.0771 45.7773C45.3962 45.6133 45.6286 45.3854 45.7744 45.0938C45.9248 44.8021 46 44.4694 46 44.0957C46 43.7539 45.9248 43.4326 45.7744 43.1318C45.6286 42.8311 45.3962 42.5895 45.0771 42.4072C44.7581 42.2204 44.3411 42.127 43.8262 42.127H41.4746V51H40.1553V41.0469H43.8262C44.5781 41.0469 45.2139 41.1768 45.7334 41.4365C46.2529 41.6963 46.6471 42.0563 46.916 42.5166C47.1849 42.9723 47.3193 43.4941 47.3193 44.082C47.3193 44.7201 47.1849 45.2646 46.916 45.7158C46.6471 46.167 46.2529 46.5111 45.7334 46.748C45.2139 46.9805 44.5781 47.0967 43.8262 47.0967ZM50.1699 40.5V51H48.8984V40.5H50.1699ZM55.2695 51.1367C54.7546 51.1367 54.2874 51.0501 53.8682 50.877C53.4535 50.6992 53.0957 50.4508 52.7949 50.1318C52.4987 49.8128 52.2708 49.4346 52.1113 48.9971C51.9518 48.5596 51.8721 48.0811 51.8721 47.5615V47.2744C51.8721 46.6729 51.9609 46.1374 52.1387 45.668C52.3164 45.194 52.5579 44.793 52.8633 44.4648C53.1686 44.1367 53.515 43.8883 53.9023 43.7197C54.2897 43.5511 54.6908 43.4668 55.1055 43.4668C55.6341 43.4668 56.0898 43.5579 56.4727 43.7402C56.86 43.9225 57.1768 44.1777 57.4229 44.5059C57.6689 44.8294 57.8512 45.2122 57.9697 45.6543C58.0882 46.0918 58.1475 46.5703 58.1475 47.0898V47.6572H52.624V46.625H56.8828V46.5293C56.8646 46.2012 56.7962 45.8822 56.6777 45.5723C56.5638 45.2624 56.3815 45.0072 56.1309 44.8066C55.8802 44.6061 55.5384 44.5059 55.1055 44.5059C54.8184 44.5059 54.554 44.5674 54.3125 44.6904C54.071 44.8089 53.8636 44.9867 53.6904 45.2236C53.5173 45.4606 53.3828 45.75 53.2871 46.0918C53.1914 46.4336 53.1436 46.8278 53.1436 47.2744V47.5615C53.1436 47.9124 53.1914 48.2428 53.2871 48.5527C53.3874 48.8581 53.5309 49.127 53.7178 49.3594C53.9092 49.5918 54.1393 49.7741 54.4082 49.9062C54.6816 50.0384 54.9915 50.1045 55.3379 50.1045C55.7845 50.1045 56.1628 50.0133 56.4727 49.8311C56.7826 49.6488 57.0537 49.4049 57.2861 49.0996L58.0518 49.708C57.8923 49.9495 57.6895 50.1797 57.4434 50.3984C57.1973 50.6172 56.8942 50.7949 56.5342 50.9316C56.1787 51.0684 55.7572 51.1367 55.2695 51.1367ZM63.9854 49.7354V45.9277C63.9854 45.6361 63.9261 45.3831 63.8076 45.1689C63.6937 44.9502 63.5205 44.7816 63.2881 44.6631C63.0557 44.5446 62.7686 44.4854 62.4268 44.4854C62.1077 44.4854 61.8275 44.54 61.5859 44.6494C61.349 44.7588 61.1621 44.9023 61.0254 45.0801C60.8932 45.2578 60.8271 45.4492 60.8271 45.6543H59.5625C59.5625 45.39 59.6309 45.1279 59.7676 44.8682C59.9043 44.6084 60.1003 44.3737 60.3555 44.1641C60.6152 43.9499 60.9251 43.7812 61.2852 43.6582C61.6497 43.5306 62.0553 43.4668 62.502 43.4668C63.0397 43.4668 63.5137 43.5579 63.9238 43.7402C64.3385 43.9225 64.6621 44.1982 64.8945 44.5674C65.1315 44.932 65.25 45.39 65.25 45.9414V49.3867C65.25 49.6328 65.2705 49.8949 65.3115 50.1729C65.3571 50.4508 65.4232 50.6901 65.5098 50.8906V51H64.1904C64.1266 50.8542 64.0765 50.6605 64.04 50.4189C64.0036 50.1729 63.9854 49.945 63.9854 49.7354ZM64.2041 46.5156L64.2178 47.4043H62.9395C62.5794 47.4043 62.2581 47.4339 61.9756 47.4932C61.693 47.5479 61.4561 47.6322 61.2646 47.7461C61.0732 47.86 60.9274 48.0036 60.8271 48.1768C60.7269 48.3454 60.6768 48.5436 60.6768 48.7715C60.6768 49.0039 60.7292 49.2158 60.834 49.4072C60.9388 49.5986 61.096 49.7513 61.3057 49.8652C61.5199 49.9746 61.7819 50.0293 62.0918 50.0293C62.4792 50.0293 62.821 49.9473 63.1172 49.7832C63.4134 49.6191 63.6481 49.4186 63.8213 49.1816C63.999 48.9447 64.0947 48.7145 64.1084 48.4912L64.6484 49.0996C64.6165 49.291 64.5299 49.5029 64.3887 49.7354C64.2474 49.9678 64.0583 50.1911 63.8213 50.4053C63.5889 50.6149 63.3109 50.7904 62.9873 50.9316C62.6683 51.0684 62.3083 51.1367 61.9072 51.1367C61.4059 51.1367 60.9661 51.0387 60.5879 50.8428C60.2142 50.6468 59.9225 50.3848 59.7129 50.0566C59.5078 49.724 59.4053 49.3525 59.4053 48.9424C59.4053 48.5459 59.4827 48.1973 59.6377 47.8965C59.7926 47.5911 60.016 47.3382 60.3076 47.1377C60.5993 46.9326 60.9502 46.7777 61.3604 46.6729C61.7705 46.568 62.2285 46.5156 62.7344 46.5156H64.2041ZM71.5459 49.0381C71.5459 48.8558 71.5049 48.6872 71.4229 48.5322C71.3454 48.3727 71.1836 48.2292 70.9375 48.1016C70.696 47.9694 70.3314 47.8555 69.8438 47.7598C69.4336 47.6732 69.0622 47.5706 68.7295 47.4521C68.4014 47.3337 68.1211 47.1901 67.8887 47.0215C67.6608 46.8529 67.4854 46.6546 67.3623 46.4268C67.2393 46.1989 67.1777 45.9323 67.1777 45.627C67.1777 45.3353 67.2415 45.0596 67.3691 44.7998C67.5013 44.54 67.6859 44.3099 67.9229 44.1094C68.1644 43.9089 68.4538 43.7516 68.791 43.6377C69.1283 43.5238 69.5042 43.4668 69.9189 43.4668C70.5114 43.4668 71.0173 43.5716 71.4365 43.7812C71.8558 43.9909 72.1771 44.2712 72.4004 44.6221C72.6237 44.9684 72.7354 45.3535 72.7354 45.7773H71.4707C71.4707 45.5723 71.4092 45.374 71.2861 45.1826C71.1676 44.9867 70.9922 44.8249 70.7598 44.6973C70.5319 44.5697 70.2516 44.5059 69.9189 44.5059C69.568 44.5059 69.2832 44.5605 69.0645 44.6699C68.8503 44.7747 68.693 44.9092 68.5928 45.0732C68.4971 45.2373 68.4492 45.4105 68.4492 45.5928C68.4492 45.7295 68.472 45.8525 68.5176 45.9619C68.5677 46.0667 68.6543 46.1647 68.7773 46.2559C68.9004 46.3424 69.0736 46.4245 69.2969 46.502C69.5202 46.5794 69.805 46.6569 70.1514 46.7344C70.7575 46.8711 71.2565 47.0352 71.6484 47.2266C72.0404 47.418 72.332 47.6527 72.5234 47.9307C72.7148 48.2087 72.8105 48.5459 72.8105 48.9424C72.8105 49.266 72.7422 49.5622 72.6055 49.8311C72.4733 50.0999 72.2796 50.3324 72.0244 50.5283C71.7738 50.7197 71.473 50.8701 71.1221 50.9795C70.7757 51.0843 70.3861 51.1367 69.9531 51.1367C69.3014 51.1367 68.75 51.0205 68.2988 50.7881C67.8477 50.5557 67.5059 50.2549 67.2734 49.8857C67.041 49.5166 66.9248 49.127 66.9248 48.7168H68.1963C68.2145 49.0632 68.3148 49.3389 68.4971 49.5439C68.6794 49.7445 68.9027 49.888 69.167 49.9746C69.4313 50.0566 69.6934 50.0977 69.9531 50.0977C70.2995 50.0977 70.5889 50.0521 70.8213 49.9609C71.0583 49.8698 71.2383 49.7445 71.3613 49.585C71.4844 49.4255 71.5459 49.2432 71.5459 49.0381ZM77.541 51.1367C77.026 51.1367 76.5589 51.0501 76.1396 50.877C75.7249 50.6992 75.3672 50.4508 75.0664 50.1318C74.7702 49.8128 74.5423 49.4346 74.3828 48.9971C74.2233 48.5596 74.1436 48.0811 74.1436 47.5615V47.2744C74.1436 46.6729 74.2324 46.1374 74.4102 45.668C74.5879 45.194 74.8294 44.793 75.1348 44.4648C75.4401 44.1367 75.7865 43.8883 76.1738 43.7197C76.5612 43.5511 76.9622 43.4668 77.377 43.4668C77.9056 43.4668 78.3613 43.5579 78.7441 43.7402C79.1315 43.9225 79.4482 44.1777 79.6943 44.5059C79.9404 44.8294 80.1227 45.2122 80.2412 45.6543C80.3597 46.0918 80.4189 46.5703 80.4189 47.0898V47.6572H74.8955V46.625H79.1543V46.5293C79.1361 46.2012 79.0677 45.8822 78.9492 45.5723C78.8353 45.2624 78.653 45.0072 78.4023 44.8066C78.1517 44.6061 77.8099 44.5059 77.377 44.5059C77.0898 44.5059 76.8255 44.5674 76.584 44.6904C76.3424 44.8089 76.1351 44.9867 75.9619 45.2236C75.7887 45.4606 75.6543 45.75 75.5586 46.0918C75.4629 46.4336 75.415 46.8278 75.415 47.2744V47.5615C75.415 47.9124 75.4629 48.2428 75.5586 48.5527C75.6589 48.8581 75.8024 49.127 75.9893 49.3594C76.1807 49.5918 76.4108 49.7741 76.6797 49.9062C76.9531 50.0384 77.263 50.1045 77.6094 50.1045C78.056 50.1045 78.4342 50.0133 78.7441 49.8311C79.054 49.6488 79.3252 49.4049 79.5576 49.0996L80.3232 49.708C80.1637 49.9495 79.9609 50.1797 79.7148 50.3984C79.4688 50.6172 79.1657 50.7949 78.8057 50.9316C78.4502 51.0684 78.0286 51.1367 77.541 51.1367ZM86.626 45.0732V51H85.3545V43.6035H86.5576L86.626 45.0732ZM86.3662 47.0215L85.7783 47.001C85.7829 46.4951 85.849 46.028 85.9766 45.5996C86.1042 45.1667 86.2933 44.7907 86.5439 44.4717C86.7946 44.1527 87.1068 43.9066 87.4805 43.7334C87.8542 43.5557 88.2871 43.4668 88.7793 43.4668C89.1257 43.4668 89.4447 43.5169 89.7363 43.6172C90.028 43.7129 90.2809 43.8656 90.4951 44.0752C90.7093 44.2848 90.8757 44.5537 90.9941 44.8818C91.1126 45.21 91.1719 45.6064 91.1719 46.0713V51H89.9072V46.1328C89.9072 45.7454 89.8411 45.4355 89.709 45.2031C89.5814 44.9707 89.3991 44.8021 89.1621 44.6973C88.9251 44.5879 88.6471 44.5332 88.3281 44.5332C87.9544 44.5332 87.6423 44.5993 87.3916 44.7314C87.141 44.8636 86.9404 45.0459 86.79 45.2783C86.6396 45.5107 86.5303 45.7773 86.4619 46.0781C86.3981 46.3743 86.3662 46.6888 86.3662 47.0215ZM91.1582 46.3242L90.3105 46.584C90.3151 46.1784 90.3812 45.7887 90.5088 45.415C90.641 45.0413 90.8301 44.7087 91.0762 44.417C91.3268 44.1253 91.6344 43.8952 91.999 43.7266C92.3636 43.5534 92.7806 43.4668 93.25 43.4668C93.6465 43.4668 93.9974 43.5192 94.3027 43.624C94.6126 43.7288 94.8724 43.8906 95.082 44.1094C95.2962 44.3236 95.458 44.5993 95.5674 44.9365C95.6768 45.2738 95.7314 45.6748 95.7314 46.1396V51H94.46V46.126C94.46 45.7113 94.3939 45.39 94.2617 45.1621C94.1341 44.9297 93.9518 44.7679 93.7148 44.6768C93.4824 44.5811 93.2044 44.5332 92.8809 44.5332C92.6029 44.5332 92.3568 44.5811 92.1426 44.6768C91.9284 44.7725 91.7484 44.9046 91.6025 45.0732C91.4567 45.2373 91.3451 45.4264 91.2676 45.6406C91.1947 45.8548 91.1582 46.0827 91.1582 46.3242ZM102.007 49.7354V45.9277C102.007 45.6361 101.948 45.3831 101.829 45.1689C101.715 44.9502 101.542 44.7816 101.31 44.6631C101.077 44.5446 100.79 44.4854 100.448 44.4854C100.129 44.4854 99.849 44.54 99.6074 44.6494C99.3704 44.7588 99.1836 44.9023 99.0469 45.0801C98.9147 45.2578 98.8486 45.4492 98.8486 45.6543H97.584C97.584 45.39 97.6523 45.1279 97.7891 44.8682C97.9258 44.6084 98.1217 44.3737 98.377 44.1641C98.6367 43.9499 98.9466 43.7812 99.3066 43.6582C99.6712 43.5306 100.077 43.4668 100.523 43.4668C101.061 43.4668 101.535 43.5579 101.945 43.7402C102.36 43.9225 102.684 44.1982 102.916 44.5674C103.153 44.932 103.271 45.39 103.271 45.9414V49.3867C103.271 49.6328 103.292 49.8949 103.333 50.1729C103.379 50.4508 103.445 50.6901 103.531 50.8906V51H102.212C102.148 50.8542 102.098 50.6605 102.062 50.4189C102.025 50.1729 102.007 49.945 102.007 49.7354ZM102.226 46.5156L102.239 47.4043H100.961C100.601 47.4043 100.28 47.4339 99.9971 47.4932C99.7145 47.5479 99.4775 47.6322 99.2861 47.7461C99.0947 47.86 98.9489 48.0036 98.8486 48.1768C98.7484 48.3454 98.6982 48.5436 98.6982 48.7715C98.6982 49.0039 98.7507 49.2158 98.8555 49.4072C98.9603 49.5986 99.1175 49.7513 99.3271 49.8652C99.5413 49.9746 99.8034 50.0293 100.113 50.0293C100.501 50.0293 100.842 49.9473 101.139 49.7832C101.435 49.6191 101.67 49.4186 101.843 49.1816C102.021 48.9447 102.116 48.7145 102.13 48.4912L102.67 49.0996C102.638 49.291 102.551 49.5029 102.41 49.7354C102.269 49.9678 102.08 50.1911 101.843 50.4053C101.61 50.6149 101.332 50.7904 101.009 50.9316C100.69 51.0684 100.33 51.1367 99.9287 51.1367C99.4274 51.1367 98.9876 51.0387 98.6094 50.8428C98.2357 50.6468 97.944 50.3848 97.7344 50.0566C97.5293 49.724 97.4268 49.3525 97.4268 48.9424C97.4268 48.5459 97.5042 48.1973 97.6592 47.8965C97.8141 47.5911 98.0374 47.3382 98.3291 47.1377C98.6208 46.9326 98.9717 46.7777 99.3818 46.6729C99.792 46.568 100.25 46.5156 100.756 46.5156H102.226ZM106.532 40.5V51H105.261V40.5H106.532ZM111.051 43.6035L107.824 47.0557L106.02 48.9287L105.917 47.582L107.209 46.0371L109.506 43.6035H111.051ZM109.896 51L107.257 47.4727L107.913 46.3447L111.386 51H109.896ZM115.289 51.1367C114.774 51.1367 114.307 51.0501 113.888 50.877C113.473 50.6992 113.115 50.4508 112.814 50.1318C112.518 49.8128 112.29 49.4346 112.131 48.9971C111.971 48.5596 111.892 48.0811 111.892 47.5615V47.2744C111.892 46.6729 111.98 46.1374 112.158 45.668C112.336 45.194 112.577 44.793 112.883 44.4648C113.188 44.1367 113.535 43.8883 113.922 43.7197C114.309 43.5511 114.71 43.4668 115.125 43.4668C115.654 43.4668 116.109 43.5579 116.492 43.7402C116.88 43.9225 117.196 44.1777 117.442 44.5059C117.688 44.8294 117.871 45.2122 117.989 45.6543C118.108 46.0918 118.167 46.5703 118.167 47.0898V47.6572H112.644V46.625H116.902V46.5293C116.884 46.2012 116.816 45.8822 116.697 45.5723C116.583 45.2624 116.401 45.0072 116.15 44.8066C115.9 44.6061 115.558 44.5059 115.125 44.5059C114.838 44.5059 114.574 44.5674 114.332 44.6904C114.09 44.8089 113.883 44.9867 113.71 45.2236C113.537 45.4606 113.402 45.75 113.307 46.0918C113.211 46.4336 113.163 46.8278 113.163 47.2744V47.5615C113.163 47.9124 113.211 48.2428 113.307 48.5527C113.407 48.8581 113.55 49.127 113.737 49.3594C113.929 49.5918 114.159 49.7741 114.428 49.9062C114.701 50.0384 115.011 50.1045 115.357 50.1045C115.804 50.1045 116.182 50.0133 116.492 49.8311C116.802 49.6488 117.073 49.4049 117.306 49.0996L118.071 49.708C117.912 49.9495 117.709 50.1797 117.463 50.3984C117.217 50.6172 116.914 50.7949 116.554 50.9316C116.198 51.0684 115.777 51.1367 115.289 51.1367ZM127.423 49.0381C127.423 48.8558 127.382 48.6872 127.3 48.5322C127.222 48.3727 127.061 48.2292 126.814 48.1016C126.573 47.9694 126.208 47.8555 125.721 47.7598C125.311 47.6732 124.939 47.5706 124.606 47.4521C124.278 47.3337 123.998 47.1901 123.766 47.0215C123.538 46.8529 123.362 46.6546 123.239 46.4268C123.116 46.1989 123.055 45.9323 123.055 45.627C123.055 45.3353 123.118 45.0596 123.246 44.7998C123.378 44.54 123.563 44.3099 123.8 44.1094C124.041 43.9089 124.331 43.7516 124.668 43.6377C125.005 43.5238 125.381 43.4668 125.796 43.4668C126.388 43.4668 126.894 43.5716 127.313 43.7812C127.733 43.9909 128.054 44.2712 128.277 44.6221C128.501 44.9684 128.612 45.3535 128.612 45.7773H127.348C127.348 45.5723 127.286 45.374 127.163 45.1826C127.045 44.9867 126.869 44.8249 126.637 44.6973C126.409 44.5697 126.129 44.5059 125.796 44.5059C125.445 44.5059 125.16 44.5605 124.941 44.6699C124.727 44.7747 124.57 44.9092 124.47 45.0732C124.374 45.2373 124.326 45.4105 124.326 45.5928C124.326 45.7295 124.349 45.8525 124.395 45.9619C124.445 46.0667 124.531 46.1647 124.654 46.2559C124.777 46.3424 124.951 46.4245 125.174 46.502C125.397 46.5794 125.682 46.6569 126.028 46.7344C126.634 46.8711 127.133 47.0352 127.525 47.2266C127.917 47.418 128.209 47.6527 128.4 47.9307C128.592 48.2087 128.688 48.5459 128.688 48.9424C128.688 49.266 128.619 49.5622 128.482 49.8311C128.35 50.0999 128.157 50.3324 127.901 50.5283C127.651 50.7197 127.35 50.8701 126.999 50.9795C126.653 51.0843 126.263 51.1367 125.83 51.1367C125.178 51.1367 124.627 51.0205 124.176 50.7881C123.725 50.5557 123.383 50.2549 123.15 49.8857C122.918 49.5166 122.802 49.127 122.802 48.7168H124.073C124.091 49.0632 124.192 49.3389 124.374 49.5439C124.556 49.7445 124.78 49.888 125.044 49.9746C125.308 50.0566 125.57 50.0977 125.83 50.0977C126.176 50.0977 126.466 50.0521 126.698 49.9609C126.935 49.8698 127.115 49.7445 127.238 49.585C127.361 49.4255 127.423 49.2432 127.423 49.0381ZM134.874 49.291V43.6035H136.146V51H134.936L134.874 49.291ZM135.113 47.7324L135.64 47.7188C135.64 48.2109 135.587 48.6667 135.482 49.0859C135.382 49.5007 135.218 49.8607 134.99 50.166C134.762 50.4714 134.464 50.7106 134.095 50.8838C133.726 51.0524 133.277 51.1367 132.748 51.1367C132.388 51.1367 132.058 51.0843 131.757 50.9795C131.461 50.8747 131.205 50.7129 130.991 50.4941C130.777 50.2754 130.611 49.9906 130.492 49.6396C130.378 49.2887 130.321 48.8672 130.321 48.375V43.6035H131.586V48.3887C131.586 48.7214 131.622 48.9971 131.695 49.2158C131.773 49.43 131.875 49.6009 132.003 49.7285C132.135 49.8516 132.281 49.9382 132.44 49.9883C132.604 50.0384 132.773 50.0635 132.946 50.0635C133.484 50.0635 133.91 49.9609 134.225 49.7559C134.539 49.5462 134.765 49.266 134.901 48.915C135.043 48.5596 135.113 48.1654 135.113 47.7324ZM139.338 44.7656V51H138.073V43.6035H139.304L139.338 44.7656ZM141.648 43.5625L141.642 44.7383C141.537 44.7155 141.437 44.7018 141.341 44.6973C141.25 44.6882 141.145 44.6836 141.026 44.6836C140.735 44.6836 140.477 44.7292 140.254 44.8203C140.031 44.9115 139.841 45.0391 139.687 45.2031C139.532 45.3672 139.409 45.5632 139.317 45.791C139.231 46.0143 139.174 46.2604 139.146 46.5293L138.791 46.7344C138.791 46.2878 138.834 45.8685 138.921 45.4766C139.012 45.0846 139.151 44.7383 139.338 44.4375C139.525 44.1322 139.762 43.8952 140.049 43.7266C140.34 43.5534 140.687 43.4668 141.088 43.4668C141.179 43.4668 141.284 43.4782 141.402 43.501C141.521 43.5192 141.603 43.5397 141.648 43.5625ZM145.75 51.1367C145.235 51.1367 144.768 51.0501 144.349 50.877C143.934 50.6992 143.576 50.4508 143.275 50.1318C142.979 49.8128 142.751 49.4346 142.592 48.9971C142.432 48.5596 142.353 48.0811 142.353 47.5615V47.2744C142.353 46.6729 142.441 46.1374 142.619 45.668C142.797 45.194 143.038 44.793 143.344 44.4648C143.649 44.1367 143.995 43.8883 144.383 43.7197C144.77 43.5511 145.171 43.4668 145.586 43.4668C146.115 43.4668 146.57 43.5579 146.953 43.7402C147.34 43.9225 147.657 44.1777 147.903 44.5059C148.149 44.8294 148.332 45.2122 148.45 45.6543C148.569 46.0918 148.628 46.5703 148.628 47.0898V47.6572H143.104V46.625H147.363V46.5293C147.345 46.2012 147.277 45.8822 147.158 45.5723C147.044 45.2624 146.862 45.0072 146.611 44.8066C146.361 44.6061 146.019 44.5059 145.586 44.5059C145.299 44.5059 145.035 44.5674 144.793 44.6904C144.551 44.8089 144.344 44.9867 144.171 45.2236C143.998 45.4606 143.863 45.75 143.768 46.0918C143.672 46.4336 143.624 46.8278 143.624 47.2744V47.5615C143.624 47.9124 143.672 48.2428 143.768 48.5527C143.868 48.8581 144.011 49.127 144.198 49.3594C144.39 49.5918 144.62 49.7741 144.889 49.9062C145.162 50.0384 145.472 50.1045 145.818 50.1045C146.265 50.1045 146.643 50.0133 146.953 49.8311C147.263 49.6488 147.534 49.4049 147.767 49.0996L148.532 49.708C148.373 49.9495 148.17 50.1797 147.924 50.3984C147.678 50.6172 147.375 50.7949 147.015 50.9316C146.659 51.0684 146.238 51.1367 145.75 51.1367ZM155.655 50.2344L157.713 43.6035H159.066L156.1 52.1416C156.031 52.3239 155.94 52.5199 155.826 52.7295C155.717 52.9437 155.576 53.1465 155.402 53.3379C155.229 53.5293 155.02 53.6842 154.773 53.8027C154.532 53.9258 154.243 53.9873 153.905 53.9873C153.805 53.9873 153.677 53.9736 153.522 53.9463C153.368 53.9189 153.258 53.8962 153.194 53.8779L153.188 52.8525C153.224 52.8571 153.281 52.8617 153.358 52.8662C153.44 52.8753 153.497 52.8799 153.529 52.8799C153.816 52.8799 154.06 52.8411 154.261 52.7637C154.461 52.6908 154.63 52.5654 154.767 52.3877C154.908 52.2145 155.029 51.9753 155.129 51.6699L155.655 50.2344ZM154.145 43.6035L156.065 49.3457L156.394 50.6787L155.484 51.1436L152.764 43.6035H154.145ZM159.764 47.3838V47.2266C159.764 46.6934 159.841 46.1989 159.996 45.7432C160.151 45.2829 160.374 44.8841 160.666 44.5469C160.958 44.2051 161.311 43.9408 161.726 43.7539C162.14 43.5625 162.605 43.4668 163.12 43.4668C163.64 43.4668 164.107 43.5625 164.521 43.7539C164.941 43.9408 165.296 44.2051 165.588 44.5469C165.884 44.8841 166.11 45.2829 166.265 45.7432C166.42 46.1989 166.497 46.6934 166.497 47.2266V47.3838C166.497 47.917 166.42 48.4115 166.265 48.8672C166.11 49.3229 165.884 49.7217 165.588 50.0635C165.296 50.4007 164.943 50.665 164.528 50.8564C164.118 51.0433 163.653 51.1367 163.134 51.1367C162.614 51.1367 162.147 51.0433 161.732 50.8564C161.318 50.665 160.962 50.4007 160.666 50.0635C160.374 49.7217 160.151 49.3229 159.996 48.8672C159.841 48.4115 159.764 47.917 159.764 47.3838ZM161.028 47.2266V47.3838C161.028 47.7529 161.072 48.1016 161.158 48.4297C161.245 48.7533 161.375 49.0404 161.548 49.291C161.726 49.5417 161.947 49.7399 162.211 49.8857C162.475 50.027 162.783 50.0977 163.134 50.0977C163.48 50.0977 163.783 50.027 164.043 49.8857C164.307 49.7399 164.526 49.5417 164.699 49.291C164.872 49.0404 165.002 48.7533 165.089 48.4297C165.18 48.1016 165.226 47.7529 165.226 47.3838V47.2266C165.226 46.862 165.18 46.5179 165.089 46.1943C165.002 45.8662 164.87 45.5768 164.692 45.3262C164.519 45.071 164.3 44.8704 164.036 44.7246C163.776 44.5788 163.471 44.5059 163.12 44.5059C162.774 44.5059 162.468 44.5788 162.204 44.7246C161.944 44.8704 161.726 45.071 161.548 45.3262C161.375 45.5768 161.245 45.8662 161.158 46.1943C161.072 46.5179 161.028 46.862 161.028 47.2266ZM172.608 49.291V43.6035H173.88V51H172.67L172.608 49.291ZM172.848 47.7324L173.374 47.7188C173.374 48.2109 173.322 48.6667 173.217 49.0859C173.117 49.5007 172.952 49.8607 172.725 50.166C172.497 50.4714 172.198 50.7106 171.829 50.8838C171.46 51.0524 171.011 51.1367 170.482 51.1367C170.122 51.1367 169.792 51.0843 169.491 50.9795C169.195 50.8747 168.94 50.7129 168.726 50.4941C168.511 50.2754 168.345 49.9906 168.227 49.6396C168.113 49.2887 168.056 48.8672 168.056 48.375V43.6035H169.32V48.3887C169.32 48.7214 169.357 48.9971 169.43 49.2158C169.507 49.43 169.61 49.6009 169.737 49.7285C169.869 49.8516 170.015 49.9382 170.175 49.9883C170.339 50.0384 170.507 50.0635 170.681 50.0635C171.218 50.0635 171.645 49.9609 171.959 49.7559C172.273 49.5462 172.499 49.266 172.636 48.915C172.777 48.5596 172.848 48.1654 172.848 47.7324ZM177.072 44.7656V51H175.808V43.6035H177.038L177.072 44.7656ZM179.383 43.5625L179.376 44.7383C179.271 44.7155 179.171 44.7018 179.075 44.6973C178.984 44.6882 178.879 44.6836 178.761 44.6836C178.469 44.6836 178.212 44.7292 177.988 44.8203C177.765 44.9115 177.576 45.0391 177.421 45.2031C177.266 45.3672 177.143 45.5632 177.052 45.791C176.965 46.0143 176.908 46.2604 176.881 46.5293L176.525 46.7344C176.525 46.2878 176.569 45.8685 176.655 45.4766C176.746 45.0846 176.885 44.7383 177.072 44.4375C177.259 44.1322 177.496 43.8952 177.783 43.7266C178.075 43.5534 178.421 43.4668 178.822 43.4668C178.913 43.4668 179.018 43.4782 179.137 43.501C179.255 43.5192 179.337 43.5397 179.383 43.5625ZM185.289 45.0254V53.8438H184.018V43.6035H185.18L185.289 45.0254ZM190.272 47.2402V47.3838C190.272 47.9215 190.209 48.4206 190.081 48.8809C189.953 49.3366 189.767 49.7331 189.521 50.0703C189.279 50.4076 188.98 50.6696 188.625 50.8564C188.27 51.0433 187.862 51.1367 187.401 51.1367C186.932 51.1367 186.517 51.0592 186.157 50.9043C185.797 50.7493 185.492 50.5238 185.241 50.2275C184.991 49.9313 184.79 49.5758 184.64 49.1611C184.494 48.7464 184.394 48.2793 184.339 47.7598V46.9941C184.394 46.4473 184.496 45.9574 184.646 45.5244C184.797 45.0915 184.995 44.7223 185.241 44.417C185.492 44.1071 185.795 43.8724 186.15 43.7129C186.506 43.5488 186.916 43.4668 187.381 43.4668C187.846 43.4668 188.258 43.5579 188.618 43.7402C188.978 43.918 189.281 44.1732 189.527 44.5059C189.773 44.8385 189.958 45.2373 190.081 45.7021C190.209 46.1624 190.272 46.6751 190.272 47.2402ZM189.001 47.3838V47.2402C189.001 46.8711 188.962 46.5247 188.885 46.2012C188.807 45.873 188.687 45.5859 188.522 45.3398C188.363 45.0892 188.158 44.8932 187.907 44.752C187.657 44.6061 187.358 44.5332 187.012 44.5332C186.693 44.5332 186.415 44.5879 186.178 44.6973C185.945 44.8066 185.747 44.9548 185.583 45.1416C185.419 45.3239 185.285 45.5335 185.18 45.7705C185.079 46.0029 185.004 46.2445 184.954 46.4951V48.2656C185.045 48.5846 185.173 48.8854 185.337 49.168C185.501 49.446 185.72 49.6715 185.993 49.8447C186.267 50.0133 186.611 50.0977 187.025 50.0977C187.367 50.0977 187.661 50.027 187.907 49.8857C188.158 49.7399 188.363 49.5417 188.522 49.291C188.687 49.0404 188.807 48.7533 188.885 48.4297C188.962 48.1016 189.001 47.7529 189.001 47.3838ZM196.247 49.7354V45.9277C196.247 45.6361 196.188 45.3831 196.069 45.1689C195.955 44.9502 195.782 44.7816 195.55 44.6631C195.317 44.5446 195.03 44.4854 194.688 44.4854C194.369 44.4854 194.089 44.54 193.848 44.6494C193.611 44.7588 193.424 44.9023 193.287 45.0801C193.155 45.2578 193.089 45.4492 193.089 45.6543H191.824C191.824 45.39 191.893 45.1279 192.029 44.8682C192.166 44.6084 192.362 44.3737 192.617 44.1641C192.877 43.9499 193.187 43.7812 193.547 43.6582C193.911 43.5306 194.317 43.4668 194.764 43.4668C195.301 43.4668 195.775 43.5579 196.186 43.7402C196.6 43.9225 196.924 44.1982 197.156 44.5674C197.393 44.932 197.512 45.39 197.512 45.9414V49.3867C197.512 49.6328 197.532 49.8949 197.573 50.1729C197.619 50.4508 197.685 50.6901 197.771 50.8906V51H196.452C196.388 50.8542 196.338 50.6605 196.302 50.4189C196.265 50.1729 196.247 49.945 196.247 49.7354ZM196.466 46.5156L196.479 47.4043H195.201C194.841 47.4043 194.52 47.4339 194.237 47.4932C193.955 47.5479 193.718 47.6322 193.526 47.7461C193.335 47.86 193.189 48.0036 193.089 48.1768C192.989 48.3454 192.938 48.5436 192.938 48.7715C192.938 49.0039 192.991 49.2158 193.096 49.4072C193.201 49.5986 193.358 49.7513 193.567 49.8652C193.782 49.9746 194.044 50.0293 194.354 50.0293C194.741 50.0293 195.083 49.9473 195.379 49.7832C195.675 49.6191 195.91 49.4186 196.083 49.1816C196.261 48.9447 196.356 48.7145 196.37 48.4912L196.91 49.0996C196.878 49.291 196.792 49.5029 196.65 49.7354C196.509 49.9678 196.32 50.1911 196.083 50.4053C195.851 50.6149 195.573 50.7904 195.249 50.9316C194.93 51.0684 194.57 51.1367 194.169 51.1367C193.668 51.1367 193.228 51.0387 192.85 50.8428C192.476 50.6468 192.184 50.3848 191.975 50.0566C191.77 49.724 191.667 49.3525 191.667 48.9424C191.667 48.5459 191.744 48.1973 191.899 47.8965C192.054 47.5911 192.278 47.3382 192.569 47.1377C192.861 46.9326 193.212 46.7777 193.622 46.6729C194.032 46.568 194.49 46.5156 194.996 46.5156H196.466ZM203.808 49.0381C203.808 48.8558 203.767 48.6872 203.685 48.5322C203.607 48.3727 203.445 48.2292 203.199 48.1016C202.958 47.9694 202.593 47.8555 202.105 47.7598C201.695 47.6732 201.324 47.5706 200.991 47.4521C200.663 47.3337 200.383 47.1901 200.15 47.0215C199.923 46.8529 199.747 46.6546 199.624 46.4268C199.501 46.1989 199.439 45.9323 199.439 45.627C199.439 45.3353 199.503 45.0596 199.631 44.7998C199.763 44.54 199.948 44.3099 200.185 44.1094C200.426 43.9089 200.715 43.7516 201.053 43.6377C201.39 43.5238 201.766 43.4668 202.181 43.4668C202.773 43.4668 203.279 43.5716 203.698 43.7812C204.118 43.9909 204.439 44.2712 204.662 44.6221C204.885 44.9684 204.997 45.3535 204.997 45.7773H203.732C203.732 45.5723 203.671 45.374 203.548 45.1826C203.429 44.9867 203.254 44.8249 203.021 44.6973C202.794 44.5697 202.513 44.5059 202.181 44.5059C201.83 44.5059 201.545 44.5605 201.326 44.6699C201.112 44.7747 200.955 44.9092 200.854 45.0732C200.759 45.2373 200.711 45.4105 200.711 45.5928C200.711 45.7295 200.734 45.8525 200.779 45.9619C200.829 46.0667 200.916 46.1647 201.039 46.2559C201.162 46.3424 201.335 46.4245 201.559 46.502C201.782 46.5794 202.067 46.6569 202.413 46.7344C203.019 46.8711 203.518 47.0352 203.91 47.2266C204.302 47.418 204.594 47.6527 204.785 47.9307C204.977 48.2087 205.072 48.5459 205.072 48.9424C205.072 49.266 205.004 49.5622 204.867 49.8311C204.735 50.0999 204.541 50.3324 204.286 50.5283C204.035 50.7197 203.735 50.8701 203.384 50.9795C203.037 51.0843 202.648 51.1367 202.215 51.1367C201.563 51.1367 201.012 51.0205 200.561 50.7881C200.109 50.5557 199.768 50.2549 199.535 49.8857C199.303 49.5166 199.187 49.127 199.187 48.7168H200.458C200.476 49.0632 200.576 49.3389 200.759 49.5439C200.941 49.7445 201.164 49.888 201.429 49.9746C201.693 50.0566 201.955 50.0977 202.215 50.0977C202.561 50.0977 202.851 50.0521 203.083 49.9609C203.32 49.8698 203.5 49.7445 203.623 49.585C203.746 49.4255 203.808 49.2432 203.808 49.0381ZM211.04 49.0381C211.04 48.8558 210.999 48.6872 210.917 48.5322C210.84 48.3727 210.678 48.2292 210.432 48.1016C210.19 47.9694 209.826 47.8555 209.338 47.7598C208.928 47.6732 208.556 47.5706 208.224 47.4521C207.896 47.3337 207.615 47.1901 207.383 47.0215C207.155 46.8529 206.979 46.6546 206.856 46.4268C206.733 46.1989 206.672 45.9323 206.672 45.627C206.672 45.3353 206.736 45.0596 206.863 44.7998C206.995 44.54 207.18 44.3099 207.417 44.1094C207.659 43.9089 207.948 43.7516 208.285 43.6377C208.622 43.5238 208.998 43.4668 209.413 43.4668C210.006 43.4668 210.511 43.5716 210.931 43.7812C211.35 43.9909 211.671 44.2712 211.895 44.6221C212.118 44.9684 212.229 45.3535 212.229 45.7773H210.965C210.965 45.5723 210.903 45.374 210.78 45.1826C210.662 44.9867 210.486 44.8249 210.254 44.6973C210.026 44.5697 209.746 44.5059 209.413 44.5059C209.062 44.5059 208.777 44.5605 208.559 44.6699C208.344 44.7747 208.187 44.9092 208.087 45.0732C207.991 45.2373 207.943 45.4105 207.943 45.5928C207.943 45.7295 207.966 45.8525 208.012 45.9619C208.062 46.0667 208.148 46.1647 208.271 46.2559C208.395 46.3424 208.568 46.4245 208.791 46.502C209.014 46.5794 209.299 46.6569 209.646 46.7344C210.252 46.8711 210.751 47.0352 211.143 47.2266C211.535 47.418 211.826 47.6527 212.018 47.9307C212.209 48.2087 212.305 48.5459 212.305 48.9424C212.305 49.266 212.236 49.5622 212.1 49.8311C211.967 50.0999 211.774 50.3324 211.519 50.5283C211.268 50.7197 210.967 50.8701 210.616 50.9795C210.27 51.0843 209.88 51.1367 209.447 51.1367C208.796 51.1367 208.244 51.0205 207.793 50.7881C207.342 50.5557 207 50.2549 206.768 49.8857C206.535 49.5166 206.419 49.127 206.419 48.7168H207.69C207.709 49.0632 207.809 49.3389 207.991 49.5439C208.174 49.7445 208.397 49.888 208.661 49.9746C208.925 50.0566 209.188 50.0977 209.447 50.0977C209.794 50.0977 210.083 50.0521 210.315 49.9609C210.552 49.8698 210.732 49.7445 210.855 49.585C210.979 49.4255 211.04 49.2432 211.04 49.0381ZM215.839 49.6875L217.739 43.6035H218.573L218.409 44.8135L216.475 51H215.661L215.839 49.6875ZM214.561 43.6035L216.181 49.7559L216.297 51H215.442L213.296 43.6035H214.561ZM220.392 49.708L221.937 43.6035H223.194L221.048 51H220.2L220.392 49.708ZM218.758 43.6035L220.617 49.585L220.829 51H220.022L218.033 44.7998L217.869 43.6035H218.758ZM224.158 47.3838V47.2266C224.158 46.6934 224.236 46.1989 224.391 45.7432C224.546 45.2829 224.769 44.8841 225.061 44.5469C225.352 44.2051 225.705 43.9408 226.12 43.7539C226.535 43.5625 227 43.4668 227.515 43.4668C228.034 43.4668 228.501 43.5625 228.916 43.7539C229.335 43.9408 229.691 44.2051 229.982 44.5469C230.279 44.8841 230.504 45.2829 230.659 45.7432C230.814 46.1989 230.892 46.6934 230.892 47.2266V47.3838C230.892 47.917 230.814 48.4115 230.659 48.8672C230.504 49.3229 230.279 49.7217 229.982 50.0635C229.691 50.4007 229.338 50.665 228.923 50.8564C228.513 51.0433 228.048 51.1367 227.528 51.1367C227.009 51.1367 226.542 51.0433 226.127 50.8564C225.712 50.665 225.357 50.4007 225.061 50.0635C224.769 49.7217 224.546 49.3229 224.391 48.8672C224.236 48.4115 224.158 47.917 224.158 47.3838ZM225.423 47.2266V47.3838C225.423 47.7529 225.466 48.1016 225.553 48.4297C225.639 48.7533 225.769 49.0404 225.942 49.291C226.12 49.5417 226.341 49.7399 226.605 49.8857C226.87 50.027 227.177 50.0977 227.528 50.0977C227.875 50.0977 228.178 50.027 228.438 49.8857C228.702 49.7399 228.921 49.5417 229.094 49.291C229.267 49.0404 229.397 48.7533 229.483 48.4297C229.575 48.1016 229.62 47.7529 229.62 47.3838V47.2266C229.62 46.862 229.575 46.5179 229.483 46.1943C229.397 45.8662 229.265 45.5768 229.087 45.3262C228.914 45.071 228.695 44.8704 228.431 44.7246C228.171 44.5788 227.866 44.5059 227.515 44.5059C227.168 44.5059 226.863 44.5788 226.599 44.7246C226.339 44.8704 226.12 45.071 225.942 45.3262C225.769 45.5768 225.639 45.8662 225.553 46.1943C225.466 46.5179 225.423 46.862 225.423 47.2266ZM233.742 44.7656V51H232.478V43.6035H233.708L233.742 44.7656ZM236.053 43.5625L236.046 44.7383C235.941 44.7155 235.841 44.7018 235.745 44.6973C235.654 44.6882 235.549 44.6836 235.431 44.6836C235.139 44.6836 234.882 44.7292 234.658 44.8203C234.435 44.9115 234.246 45.0391 234.091 45.2031C233.936 45.3672 233.813 45.5632 233.722 45.791C233.635 46.0143 233.578 46.2604 233.551 46.5293L233.195 46.7344C233.195 46.2878 233.239 45.8685 233.325 45.4766C233.416 45.0846 233.555 44.7383 233.742 44.4375C233.929 44.1322 234.166 43.8952 234.453 43.7266C234.745 43.5534 235.091 43.4668 235.492 43.4668C235.583 43.4668 235.688 43.4782 235.807 43.501C235.925 43.5192 236.007 43.5397 236.053 43.5625ZM241.747 49.5645V40.5H243.019V51H241.856L241.747 49.5645ZM236.771 47.3838V47.2402C236.771 46.6751 236.839 46.1624 236.976 45.7021C237.117 45.2373 237.315 44.8385 237.57 44.5059C237.83 44.1732 238.138 43.918 238.493 43.7402C238.853 43.5579 239.254 43.4668 239.696 43.4668C240.161 43.4668 240.567 43.5488 240.913 43.7129C241.264 43.8724 241.56 44.1071 241.802 44.417C242.048 44.7223 242.242 45.0915 242.383 45.5244C242.524 45.9574 242.622 46.4473 242.677 46.9941V47.623C242.627 48.1654 242.529 48.653 242.383 49.0859C242.242 49.5189 242.048 49.888 241.802 50.1934C241.56 50.4987 241.264 50.7334 240.913 50.8975C240.562 51.057 240.152 51.1367 239.683 51.1367C239.25 51.1367 238.853 51.0433 238.493 50.8564C238.138 50.6696 237.83 50.4076 237.57 50.0703C237.315 49.7331 237.117 49.3366 236.976 48.8809C236.839 48.4206 236.771 47.9215 236.771 47.3838ZM238.042 47.2402V47.3838C238.042 47.7529 238.078 48.0993 238.151 48.4229C238.229 48.7464 238.347 49.0312 238.507 49.2773C238.666 49.5234 238.869 49.7171 239.115 49.8584C239.361 49.9951 239.655 50.0635 239.997 50.0635C240.416 50.0635 240.76 49.9746 241.029 49.7969C241.303 49.6191 241.521 49.3844 241.686 49.0928C241.85 48.8011 241.977 48.4844 242.068 48.1426V46.4951C242.014 46.2445 241.934 46.0029 241.829 45.7705C241.729 45.5335 241.597 45.3239 241.433 45.1416C241.273 44.9548 241.075 44.8066 240.838 44.6973C240.605 44.5879 240.33 44.5332 240.011 44.5332C239.664 44.5332 239.366 44.6061 239.115 44.752C238.869 44.8932 238.666 45.0892 238.507 45.3398C238.347 45.5859 238.229 45.873 238.151 46.2012C238.078 46.5247 238.042 46.8711 238.042 47.2402ZM249.718 45.0732V51H248.446V43.6035H249.649L249.718 45.0732ZM249.458 47.0215L248.87 47.001C248.875 46.4951 248.941 46.028 249.068 45.5996C249.196 45.1667 249.385 44.7907 249.636 44.4717C249.886 44.1527 250.199 43.9066 250.572 43.7334C250.946 43.5557 251.379 43.4668 251.871 43.4668C252.217 43.4668 252.536 43.5169 252.828 43.6172C253.12 43.7129 253.373 43.8656 253.587 44.0752C253.801 44.2848 253.967 44.5537 254.086 44.8818C254.204 45.21 254.264 45.6064 254.264 46.0713V51H252.999V46.1328C252.999 45.7454 252.933 45.4355 252.801 45.2031C252.673 44.9707 252.491 44.8021 252.254 44.6973C252.017 44.5879 251.739 44.5332 251.42 44.5332C251.046 44.5332 250.734 44.5993 250.483 44.7314C250.233 44.8636 250.032 45.0459 249.882 45.2783C249.731 45.5107 249.622 45.7773 249.554 46.0781C249.49 46.3743 249.458 46.6888 249.458 47.0215ZM254.25 46.3242L253.402 46.584C253.407 46.1784 253.473 45.7887 253.601 45.415C253.733 45.0413 253.922 44.7087 254.168 44.417C254.419 44.1253 254.726 43.8952 255.091 43.7266C255.455 43.5534 255.872 43.4668 256.342 43.4668C256.738 43.4668 257.089 43.5192 257.395 43.624C257.704 43.7288 257.964 43.8906 258.174 44.1094C258.388 44.3236 258.55 44.5993 258.659 44.9365C258.769 45.2738 258.823 45.6748 258.823 46.1396V51H257.552V46.126C257.552 45.7113 257.486 45.39 257.354 45.1621C257.226 44.9297 257.044 44.7679 256.807 44.6768C256.574 44.5811 256.296 44.5332 255.973 44.5332C255.695 44.5332 255.449 44.5811 255.234 44.6768C255.02 44.7725 254.84 44.9046 254.694 45.0732C254.549 45.2373 254.437 45.4264 254.359 45.6406C254.286 45.8548 254.25 46.0827 254.25 46.3242ZM265.099 49.7354V45.9277C265.099 45.6361 265.039 45.3831 264.921 45.1689C264.807 44.9502 264.634 44.7816 264.401 44.6631C264.169 44.5446 263.882 44.4854 263.54 44.4854C263.221 44.4854 262.941 44.54 262.699 44.6494C262.462 44.7588 262.275 44.9023 262.139 45.0801C262.007 45.2578 261.94 45.4492 261.94 45.6543H260.676C260.676 45.39 260.744 45.1279 260.881 44.8682C261.018 44.6084 261.214 44.3737 261.469 44.1641C261.729 43.9499 262.038 43.7812 262.398 43.6582C262.763 43.5306 263.169 43.4668 263.615 43.4668C264.153 43.4668 264.627 43.5579 265.037 43.7402C265.452 43.9225 265.775 44.1982 266.008 44.5674C266.245 44.932 266.363 45.39 266.363 45.9414V49.3867C266.363 49.6328 266.384 49.8949 266.425 50.1729C266.47 50.4508 266.536 50.6901 266.623 50.8906V51H265.304C265.24 50.8542 265.19 50.6605 265.153 50.4189C265.117 50.1729 265.099 49.945 265.099 49.7354ZM265.317 46.5156L265.331 47.4043H264.053C263.693 47.4043 263.371 47.4339 263.089 47.4932C262.806 47.5479 262.569 47.6322 262.378 47.7461C262.187 47.86 262.041 48.0036 261.94 48.1768C261.84 48.3454 261.79 48.5436 261.79 48.7715C261.79 49.0039 261.842 49.2158 261.947 49.4072C262.052 49.5986 262.209 49.7513 262.419 49.8652C262.633 49.9746 262.895 50.0293 263.205 50.0293C263.592 50.0293 263.934 49.9473 264.23 49.7832C264.527 49.6191 264.761 49.4186 264.935 49.1816C265.112 48.9447 265.208 48.7145 265.222 48.4912L265.762 49.0996C265.73 49.291 265.643 49.5029 265.502 49.7354C265.361 49.9678 265.172 50.1911 264.935 50.4053C264.702 50.6149 264.424 50.7904 264.101 50.9316C263.782 51.0684 263.422 51.1367 263.021 51.1367C262.519 51.1367 262.079 51.0387 261.701 50.8428C261.327 50.6468 261.036 50.3848 260.826 50.0566C260.621 49.724 260.519 49.3525 260.519 48.9424C260.519 48.5459 260.596 48.1973 260.751 47.8965C260.906 47.5911 261.129 47.3382 261.421 47.1377C261.713 46.9326 262.063 46.7777 262.474 46.6729C262.884 46.568 263.342 46.5156 263.848 46.5156H265.317ZM271.449 43.6035V44.5742H267.45V43.6035H271.449ZM268.804 41.8057H270.068V49.168C270.068 49.4186 270.107 49.6077 270.185 49.7354C270.262 49.863 270.362 49.9473 270.485 49.9883C270.608 50.0293 270.741 50.0498 270.882 50.0498C270.987 50.0498 271.096 50.0407 271.21 50.0225C271.328 49.9997 271.417 49.9814 271.477 49.9678L271.483 51C271.383 51.0319 271.251 51.0615 271.087 51.0889C270.927 51.1208 270.734 51.1367 270.506 51.1367C270.196 51.1367 269.911 51.0752 269.651 50.9521C269.392 50.8291 269.184 50.624 269.029 50.3369C268.879 50.0452 268.804 49.6533 268.804 49.1611V41.8057ZM275.893 50.0977C276.193 50.0977 276.471 50.0361 276.727 49.9131C276.982 49.79 277.191 49.6214 277.355 49.4072C277.52 49.1885 277.613 48.9401 277.636 48.6621H278.839C278.816 49.0996 278.668 49.5075 278.395 49.8857C278.126 50.2594 277.772 50.5625 277.335 50.7949C276.897 51.0228 276.417 51.1367 275.893 51.1367C275.337 51.1367 274.851 51.0387 274.437 50.8428C274.026 50.6468 273.685 50.3779 273.411 50.0361C273.142 49.6943 272.939 49.3024 272.803 48.8604C272.671 48.4137 272.604 47.9421 272.604 47.4453V47.1582C272.604 46.6615 272.671 46.1921 272.803 45.75C272.939 45.3034 273.142 44.9092 273.411 44.5674C273.685 44.2256 274.026 43.9567 274.437 43.7607C274.851 43.5648 275.337 43.4668 275.893 43.4668C276.471 43.4668 276.977 43.5853 277.41 43.8223C277.843 44.0547 278.183 44.3737 278.429 44.7793C278.679 45.1803 278.816 45.6361 278.839 46.1465H277.636C277.613 45.8411 277.526 45.5654 277.376 45.3193C277.23 45.0732 277.03 44.8773 276.774 44.7314C276.524 44.5811 276.23 44.5059 275.893 44.5059C275.505 44.5059 275.179 44.5833 274.915 44.7383C274.655 44.8887 274.448 45.0938 274.293 45.3535C274.143 45.6087 274.033 45.8936 273.965 46.208C273.901 46.5179 273.869 46.8346 273.869 47.1582V47.4453C273.869 47.7689 273.901 48.0879 273.965 48.4023C274.029 48.7168 274.136 49.0016 274.286 49.2568C274.441 49.512 274.648 49.7171 274.908 49.8721C275.173 50.0225 275.501 50.0977 275.893 50.0977ZM281.525 40.5V51H280.261V40.5H281.525ZM281.225 47.0215L280.698 47.001C280.703 46.4951 280.778 46.028 280.924 45.5996C281.07 45.1667 281.275 44.7907 281.539 44.4717C281.803 44.1527 282.118 43.9066 282.482 43.7334C282.852 43.5557 283.259 43.4668 283.706 43.4668C284.071 43.4668 284.399 43.5169 284.69 43.6172C284.982 43.7129 285.23 43.8678 285.436 44.082C285.645 44.2962 285.805 44.5742 285.914 44.916C286.023 45.2533 286.078 45.6657 286.078 46.1533V51H284.807V46.1396C284.807 45.7523 284.75 45.4424 284.636 45.21C284.522 44.973 284.355 44.8021 284.137 44.6973C283.918 44.5879 283.649 44.5332 283.33 44.5332C283.016 44.5332 282.729 44.5993 282.469 44.7314C282.214 44.8636 281.993 45.0459 281.806 45.2783C281.623 45.5107 281.48 45.7773 281.375 46.0781C281.275 46.3743 281.225 46.6888 281.225 47.0215Z" fill="black"/>
<defs>
<filter id="filter0_d_192_300" x="0" y="0" width="324" height="97.5984" filterUnits="userSpaceOnUse" color-interpolation-filters="sRGB">
<feFlood flood-opacity="0" result="BackgroundImageFix"/>
<feColorMatrix in="SourceAlpha" type="matrix" values="0 0 0 0 0 0 0 0 0 0 0 0 0 0 0 0 0 0 127 0" result="hardAlpha"/>
<feOffset dy="4"/>
<feGaussianBlur stdDeviation="5"/>
<feComposite in2="hardAlpha" operator="out"/>
<feColorMatrix type="matrix" values="0 0 0 0 0 0 0 0 0 0 0 0 0 0 0 0 0 0 0.1 0"/>
<feBlend mode="normal" in2="BackgroundImageFix" result="effect1_dropShadow_192_300"/>
<feBlend mode="normal" in="SourceGraphic" in2="effect1_dropShadow_192_300" result="shape"/>
</filter>
</defs>
</svg>
