<svg width="16" height="16" viewBox="0 0 16 16" fill="none" xmlns="http://www.w3.org/2000/svg">
<path d="M7.33325 1.33334H5.99992C2.66659 1.33334 1.33325 2.66667 1.33325 6V10C1.33325 13.3333 2.66659 14.6667 5.99992 14.6667H9.99992C13.3333 14.6667 14.6666 13.3333 14.6666 10V8.66667" stroke="#292D32" stroke-linecap="round" stroke-linejoin="round"/>
<path d="M10.6933 2.01333L5.43992 7.26667C5.23992 7.46667 5.03992 7.86 4.99992 8.14667L4.71325 10.1533C4.60659 10.88 5.11992 11.3867 5.84659 11.2867L7.85325 11C8.13325 10.96 8.52659 10.76 8.73325 10.56L13.9866 5.30667C14.8933 4.4 15.3199 3.34667 13.9866 2.01333C12.6533 0.680001 11.5999 1.10667 10.6933 2.01333Z" stroke="#292D32" stroke-miterlimit="10" stroke-linecap="round" stroke-linejoin="round"/>
<path d="M9.93994 2.76667C10.3866 4.36 11.6333 5.60667 13.2333 6.06" stroke="#292D32" stroke-miterlimit="10" stroke-linecap="round" stroke-linejoin="round"/>
</svg>
