<svg width="351" height="109" viewBox="0 0 351 109" fill="none" xmlns="http://www.w3.org/2000/svg">
<g filter="url(#filter0_d_53_57)">
<path d="M10 12C10 8.68629 12.6863 6 16 6H335C338.314 6 341 8.68629 341 12V73.5232C341 76.8369 338.314 79.5232 335 79.5232H81.2203C79.598 79.5232 78.0449 80.1801 76.9149 81.3442L65.9981 92.5912C63.6513 95.009 59.7742 95.0208 57.4128 92.6172L46.3117 81.3182C45.1836 80.17 43.6414 79.5232 42.0317 79.5232H16C12.6863 79.5232 10 76.8369 10 73.5232V12Z" fill="#EBF2FF"/>
</g>
<path d="M41.7539 18.3359V29H40.3403V18.3359H41.7539ZM45.4746 22.7671V29H44.1196V21.0752H45.4014L45.4746 22.7671ZM45.1523 24.7373L44.5884 24.7153C44.5933 24.1733 44.6738 23.6729 44.8301 23.2139C44.9863 22.75 45.2061 22.3472 45.4893 22.0054C45.7725 21.6636 46.1094 21.3999 46.5 21.2144C46.8955 21.0239 47.3325 20.9287 47.811 20.9287C48.2017 20.9287 48.5532 20.9824 48.8657 21.0898C49.1782 21.1924 49.4443 21.3584 49.6641 21.5879C49.8887 21.8174 50.0596 22.1152 50.1768 22.4814C50.2939 22.8428 50.3525 23.2847 50.3525 23.8071V29H48.9902V23.7925C48.9902 23.3774 48.9292 23.0454 48.8071 22.7964C48.6851 22.5425 48.5068 22.3594 48.2725 22.2471C48.0381 22.1299 47.75 22.0713 47.4082 22.0713C47.0713 22.0713 46.7637 22.1421 46.4854 22.2837C46.2119 22.4253 45.9751 22.6206 45.7749 22.8696C45.5796 23.1187 45.4258 23.4043 45.3135 23.7266C45.2061 24.0439 45.1523 24.3809 45.1523 24.7373ZM55.582 28.0332C55.9043 28.0332 56.2021 27.9673 56.4756 27.8354C56.749 27.7036 56.9736 27.5229 57.1494 27.2935C57.3252 27.0591 57.4253 26.793 57.4497 26.4951H58.7388C58.7144 26.9639 58.5557 27.4009 58.2627 27.8062C57.9746 28.2065 57.5962 28.5312 57.1274 28.7803C56.6587 29.0244 56.1436 29.1465 55.582 29.1465C54.9863 29.1465 54.4663 29.0415 54.022 28.8315C53.5825 28.6216 53.2163 28.3335 52.9233 27.9673C52.6353 27.6011 52.418 27.1812 52.2715 26.7075C52.1299 26.229 52.0591 25.7236 52.0591 25.1914V24.8838C52.0591 24.3516 52.1299 23.8486 52.2715 23.375C52.418 22.8965 52.6353 22.4741 52.9233 22.1079C53.2163 21.7417 53.5825 21.4536 54.022 21.2437C54.4663 21.0337 54.9863 20.9287 55.582 20.9287C56.2021 20.9287 56.7441 21.0557 57.208 21.3096C57.6719 21.5586 58.0356 21.9004 58.2993 22.335C58.5679 22.7646 58.7144 23.2529 58.7388 23.7998H57.4497C57.4253 23.4727 57.3325 23.1772 57.1714 22.9136C57.0151 22.6499 56.8003 22.4399 56.5269 22.2837C56.2583 22.1226 55.9434 22.042 55.582 22.042C55.167 22.042 54.8179 22.125 54.5347 22.291C54.2563 22.4521 54.0342 22.6719 53.8682 22.9502C53.707 23.2236 53.5898 23.5288 53.5166 23.8657C53.4482 24.1978 53.4141 24.5371 53.4141 24.8838V25.1914C53.4141 25.5381 53.4482 25.8799 53.5166 26.2168C53.585 26.5537 53.6997 26.8589 53.8608 27.1323C54.0269 27.4058 54.249 27.6255 54.5273 27.7915C54.8105 27.9526 55.1621 28.0332 55.582 28.0332ZM59.9033 25.1255V24.957C59.9033 24.3857 59.9863 23.856 60.1523 23.3677C60.3184 22.8745 60.5576 22.4473 60.8701 22.0859C61.1826 21.7197 61.561 21.4365 62.0054 21.2363C62.4497 21.0312 62.9478 20.9287 63.4995 20.9287C64.0562 20.9287 64.5566 21.0312 65.001 21.2363C65.4502 21.4365 65.8311 21.7197 66.1436 22.0859C66.4609 22.4473 66.7026 22.8745 66.8687 23.3677C67.0347 23.856 67.1177 24.3857 67.1177 24.957V25.1255C67.1177 25.6968 67.0347 26.2266 66.8687 26.7148C66.7026 27.2031 66.4609 27.6304 66.1436 27.9966C65.8311 28.3579 65.4526 28.6411 65.0083 28.8462C64.5688 29.0464 64.0708 29.1465 63.5142 29.1465C62.9575 29.1465 62.457 29.0464 62.0127 28.8462C61.5684 28.6411 61.1875 28.3579 60.8701 27.9966C60.5576 27.6304 60.3184 27.2031 60.1523 26.7148C59.9863 26.2266 59.9033 25.6968 59.9033 25.1255ZM61.2583 24.957V25.1255C61.2583 25.521 61.3047 25.8945 61.3975 26.2461C61.4902 26.5928 61.6294 26.9004 61.8149 27.1689C62.0054 27.4375 62.2422 27.6499 62.5254 27.8062C62.8086 27.9575 63.1382 28.0332 63.5142 28.0332C63.8853 28.0332 64.21 27.9575 64.4883 27.8062C64.7715 27.6499 65.0059 27.4375 65.1914 27.1689C65.377 26.9004 65.5161 26.5928 65.6089 26.2461C65.7065 25.8945 65.7554 25.521 65.7554 25.1255V24.957C65.7554 24.5664 65.7065 24.1978 65.6089 23.8511C65.5161 23.4995 65.3745 23.1895 65.1841 22.9209C64.9985 22.6475 64.7642 22.4326 64.481 22.2764C64.2026 22.1201 63.8755 22.042 63.4995 22.042C63.1284 22.042 62.8013 22.1201 62.5181 22.2764C62.2397 22.4326 62.0054 22.6475 61.8149 22.9209C61.6294 23.1895 61.4902 23.4995 61.3975 23.8511C61.3047 24.1978 61.2583 24.5664 61.2583 24.957ZM70.1719 22.3203V29H68.8169V21.0752H70.1353L70.1719 22.3203ZM72.6475 21.0312L72.6401 22.291C72.5278 22.2666 72.4204 22.252 72.3179 22.2471C72.2202 22.2373 72.1079 22.2324 71.981 22.2324C71.6685 22.2324 71.3926 22.2812 71.1533 22.3789C70.9141 22.4766 70.7114 22.6133 70.5454 22.7891C70.3794 22.9648 70.2476 23.1748 70.1499 23.4189C70.0571 23.6582 69.9961 23.9219 69.9668 24.21L69.5859 24.4297C69.5859 23.9512 69.6323 23.502 69.7251 23.082C69.8228 22.6621 69.9717 22.291 70.1719 21.9688C70.3721 21.6416 70.626 21.3877 70.9336 21.207C71.2461 21.0215 71.6172 20.9287 72.0469 20.9287C72.1445 20.9287 72.2568 20.9409 72.3838 20.9653C72.5107 20.9849 72.5986 21.0068 72.6475 21.0312ZM75.2549 22.3203V29H73.8999V21.0752H75.2183L75.2549 22.3203ZM77.7305 21.0312L77.7231 22.291C77.6108 22.2666 77.5034 22.252 77.4009 22.2471C77.3032 22.2373 77.1909 22.2324 77.064 22.2324C76.7515 22.2324 76.4756 22.2812 76.2363 22.3789C75.9971 22.4766 75.7944 22.6133 75.6284 22.7891C75.4624 22.9648 75.3306 23.1748 75.2329 23.4189C75.1401 23.6582 75.0791 23.9219 75.0498 24.21L74.6689 24.4297C74.6689 23.9512 74.7153 23.502 74.8081 23.082C74.9058 22.6621 75.0547 22.291 75.2549 21.9688C75.4551 21.6416 75.709 21.3877 76.0166 21.207C76.3291 21.0215 76.7002 20.9287 77.1299 20.9287C77.2275 20.9287 77.3398 20.9409 77.4668 20.9653C77.5938 20.9849 77.6816 21.0068 77.7305 21.0312ZM82.125 29.1465C81.5732 29.1465 81.0728 29.0537 80.6235 28.8682C80.1792 28.6777 79.7959 28.4116 79.4736 28.0698C79.1562 27.728 78.9121 27.3228 78.7412 26.854C78.5703 26.3853 78.4849 25.8726 78.4849 25.3159V25.0083C78.4849 24.3638 78.5801 23.79 78.7705 23.2871C78.9609 22.7793 79.2197 22.3496 79.5469 21.998C79.874 21.6465 80.2451 21.3804 80.6602 21.1997C81.0752 21.019 81.5049 20.9287 81.9492 20.9287C82.5156 20.9287 83.0039 21.0264 83.4141 21.2217C83.8291 21.417 84.1685 21.6904 84.4321 22.042C84.6958 22.3887 84.8911 22.7988 85.0181 23.2725C85.145 23.7412 85.2085 24.2539 85.2085 24.8105V25.4185H79.2905V24.3125H83.8535V24.21C83.834 23.8584 83.7607 23.5166 83.6338 23.1846C83.5117 22.8525 83.3164 22.5791 83.0479 22.3643C82.7793 22.1494 82.4131 22.042 81.9492 22.042C81.6416 22.042 81.3584 22.1079 81.0996 22.2397C80.8408 22.3667 80.6187 22.5571 80.4331 22.811C80.2476 23.0649 80.1035 23.375 80.001 23.7412C79.8984 24.1074 79.8472 24.5298 79.8472 25.0083V25.3159C79.8472 25.6919 79.8984 26.0459 80.001 26.3779C80.1084 26.7051 80.2622 26.9932 80.4624 27.2422C80.6675 27.4912 80.9141 27.6865 81.2021 27.8281C81.4951 27.9697 81.8271 28.0405 82.1982 28.0405C82.6768 28.0405 83.082 27.9429 83.4141 27.7476C83.7461 27.5522 84.0366 27.291 84.2856 26.9639L85.106 27.6157C84.9351 27.8745 84.7178 28.1211 84.4541 28.3555C84.1904 28.5898 83.8657 28.7803 83.48 28.9268C83.0991 29.0732 82.6475 29.1465 82.125 29.1465ZM89.9619 28.0332C90.2842 28.0332 90.582 27.9673 90.8555 27.8354C91.1289 27.7036 91.3535 27.5229 91.5293 27.2935C91.7051 27.0591 91.8052 26.793 91.8296 26.4951H93.1187C93.0942 26.9639 92.9355 27.4009 92.6426 27.8062C92.3545 28.2065 91.9761 28.5312 91.5073 28.7803C91.0386 29.0244 90.5234 29.1465 89.9619 29.1465C89.3662 29.1465 88.8462 29.0415 88.4019 28.8315C87.9624 28.6216 87.5962 28.3335 87.3032 27.9673C87.0151 27.6011 86.7979 27.1812 86.6514 26.7075C86.5098 26.229 86.439 25.7236 86.439 25.1914V24.8838C86.439 24.3516 86.5098 23.8486 86.6514 23.375C86.7979 22.8965 87.0151 22.4741 87.3032 22.1079C87.5962 21.7417 87.9624 21.4536 88.4019 21.2437C88.8462 21.0337 89.3662 20.9287 89.9619 20.9287C90.582 20.9287 91.124 21.0557 91.5879 21.3096C92.0518 21.5586 92.4155 21.9004 92.6792 22.335C92.9478 22.7646 93.0942 23.2529 93.1187 23.7998H91.8296C91.8052 23.4727 91.7124 23.1772 91.5513 22.9136C91.395 22.6499 91.1802 22.4399 90.9067 22.2837C90.6382 22.1226 90.3232 22.042 89.9619 22.042C89.5469 22.042 89.1978 22.125 88.9146 22.291C88.6362 22.4521 88.4141 22.6719 88.248 22.9502C88.0869 23.2236 87.9697 23.5288 87.8965 23.8657C87.8281 24.1978 87.7939 24.5371 87.7939 24.8838V25.1914C87.7939 25.5381 87.8281 25.8799 87.8965 26.2168C87.9648 26.5537 88.0796 26.8589 88.2407 27.1323C88.4067 27.4058 88.6289 27.6255 88.9072 27.7915C89.1904 27.9526 89.542 28.0332 89.9619 28.0332ZM97.96 21.0752V22.1152H93.6753V21.0752H97.96ZM95.1255 19.1489H96.4805V27.0371C96.4805 27.3057 96.522 27.5083 96.605 27.645C96.688 27.7817 96.7954 27.8721 96.9272 27.916C97.0591 27.96 97.2007 27.9819 97.3521 27.9819C97.4644 27.9819 97.5815 27.9722 97.7036 27.9526C97.8306 27.9282 97.9258 27.9087 97.9893 27.894L97.9966 29C97.8892 29.0342 97.7476 29.0659 97.5718 29.0952C97.4009 29.1294 97.1934 29.1465 96.9492 29.1465C96.6172 29.1465 96.312 29.0806 96.0337 28.9487C95.7554 28.8169 95.5332 28.5972 95.3672 28.2896C95.2061 27.9771 95.1255 27.5571 95.1255 27.0298V19.1489ZM107.408 24.8179H104.559V23.668H107.408C107.96 23.668 108.407 23.5801 108.749 23.4043C109.09 23.2285 109.339 22.9844 109.496 22.6719C109.657 22.3594 109.737 22.0029 109.737 21.6025C109.737 21.2363 109.657 20.8921 109.496 20.5698C109.339 20.2476 109.09 19.9888 108.749 19.7935C108.407 19.5933 107.96 19.4932 107.408 19.4932H104.889V29H103.475V18.3359H107.408C108.214 18.3359 108.895 18.4751 109.452 18.7534C110.008 19.0317 110.431 19.4175 110.719 19.9106C111.007 20.3989 111.151 20.958 111.151 21.5879C111.151 22.2715 111.007 22.855 110.719 23.3384C110.431 23.8218 110.008 24.1904 109.452 24.4443C108.895 24.6934 108.214 24.8179 107.408 24.8179ZM114.088 17.75V29H112.733V17.75H114.088ZM113.766 24.7373L113.202 24.7153C113.207 24.1733 113.287 23.6729 113.443 23.2139C113.6 22.75 113.819 22.3472 114.103 22.0054C114.386 21.6636 114.723 21.3999 115.113 21.2144C115.509 21.0239 115.946 20.9287 116.424 20.9287C116.815 20.9287 117.167 20.9824 117.479 21.0898C117.792 21.1924 118.058 21.3584 118.277 21.5879C118.502 21.8174 118.673 22.1152 118.79 22.4814C118.907 22.8428 118.966 23.2847 118.966 23.8071V29H117.604V23.7925C117.604 23.3774 117.542 23.0454 117.42 22.7964C117.298 22.5425 117.12 22.3594 116.886 22.2471C116.651 22.1299 116.363 22.0713 116.021 22.0713C115.685 22.0713 115.377 22.1421 115.099 22.2837C114.825 22.4253 114.588 22.6206 114.388 22.8696C114.193 23.1187 114.039 23.4043 113.927 23.7266C113.819 24.0439 113.766 24.3809 113.766 24.7373ZM120.636 25.1255V24.957C120.636 24.3857 120.719 23.856 120.885 23.3677C121.051 22.8745 121.29 22.4473 121.603 22.0859C121.915 21.7197 122.293 21.4365 122.738 21.2363C123.182 21.0312 123.68 20.9287 124.232 20.9287C124.789 20.9287 125.289 21.0312 125.733 21.2363C126.183 21.4365 126.563 21.7197 126.876 22.0859C127.193 22.4473 127.435 22.8745 127.601 23.3677C127.767 23.856 127.85 24.3857 127.85 24.957V25.1255C127.85 25.6968 127.767 26.2266 127.601 26.7148C127.435 27.2031 127.193 27.6304 126.876 27.9966C126.563 28.3579 126.185 28.6411 125.741 28.8462C125.301 29.0464 124.803 29.1465 124.247 29.1465C123.69 29.1465 123.189 29.0464 122.745 28.8462C122.301 28.6411 121.92 28.3579 121.603 27.9966C121.29 27.6304 121.051 27.2031 120.885 26.7148C120.719 26.2266 120.636 25.6968 120.636 25.1255ZM121.991 24.957V25.1255C121.991 25.521 122.037 25.8945 122.13 26.2461C122.223 26.5928 122.362 26.9004 122.547 27.1689C122.738 27.4375 122.975 27.6499 123.258 27.8062C123.541 27.9575 123.871 28.0332 124.247 28.0332C124.618 28.0332 124.942 27.9575 125.221 27.8062C125.504 27.6499 125.738 27.4375 125.924 27.1689C126.109 26.9004 126.249 26.5928 126.341 26.2461C126.439 25.8945 126.488 25.521 126.488 25.1255V24.957C126.488 24.5664 126.439 24.1978 126.341 23.8511C126.249 23.4995 126.107 23.1895 125.917 22.9209C125.731 22.6475 125.497 22.4326 125.213 22.2764C124.935 22.1201 124.608 22.042 124.232 22.042C123.861 22.042 123.534 22.1201 123.25 22.2764C122.972 22.4326 122.738 22.6475 122.547 22.9209C122.362 23.1895 122.223 23.4995 122.13 23.8511C122.037 24.1978 121.991 24.5664 121.991 24.957ZM130.904 22.7671V29H129.549V21.0752H130.831L130.904 22.7671ZM130.582 24.7373L130.018 24.7153C130.023 24.1733 130.104 23.6729 130.26 23.2139C130.416 22.75 130.636 22.3472 130.919 22.0054C131.202 21.6636 131.539 21.3999 131.93 21.2144C132.325 21.0239 132.762 20.9287 133.241 20.9287C133.631 20.9287 133.983 20.9824 134.295 21.0898C134.608 21.1924 134.874 21.3584 135.094 21.5879C135.318 21.8174 135.489 22.1152 135.606 22.4814C135.724 22.8428 135.782 23.2847 135.782 23.8071V29H134.42V23.7925C134.42 23.3774 134.359 23.0454 134.237 22.7964C134.115 22.5425 133.937 22.3594 133.702 22.2471C133.468 22.1299 133.18 22.0713 132.838 22.0713C132.501 22.0713 132.193 22.1421 131.915 22.2837C131.642 22.4253 131.405 22.6206 131.205 22.8696C131.009 23.1187 130.855 23.4043 130.743 23.7266C130.636 24.0439 130.582 24.3809 130.582 24.7373ZM141.129 29.1465C140.577 29.1465 140.077 29.0537 139.627 28.8682C139.183 28.6777 138.8 28.4116 138.478 28.0698C138.16 27.728 137.916 27.3228 137.745 26.854C137.574 26.3853 137.489 25.8726 137.489 25.3159V25.0083C137.489 24.3638 137.584 23.79 137.774 23.2871C137.965 22.7793 138.224 22.3496 138.551 21.998C138.878 21.6465 139.249 21.3804 139.664 21.1997C140.079 21.019 140.509 20.9287 140.953 20.9287C141.52 20.9287 142.008 21.0264 142.418 21.2217C142.833 21.417 143.172 21.6904 143.436 22.042C143.7 22.3887 143.895 22.7988 144.022 23.2725C144.149 23.7412 144.212 24.2539 144.212 24.8105V25.4185H138.294V24.3125H142.857V24.21C142.838 23.8584 142.765 23.5166 142.638 23.1846C142.516 22.8525 142.32 22.5791 142.052 22.3643C141.783 22.1494 141.417 22.042 140.953 22.042C140.646 22.042 140.362 22.1079 140.104 22.2397C139.845 22.3667 139.623 22.5571 139.437 22.811C139.251 23.0649 139.107 23.375 139.005 23.7412C138.902 24.1074 138.851 24.5298 138.851 25.0083V25.3159C138.851 25.6919 138.902 26.0459 139.005 26.3779C139.112 26.7051 139.266 26.9932 139.466 27.2422C139.671 27.4912 139.918 27.6865 140.206 27.8281C140.499 27.9697 140.831 28.0405 141.202 28.0405C141.681 28.0405 142.086 27.9429 142.418 27.7476C142.75 27.5522 143.041 27.291 143.29 26.9639L144.11 27.6157C143.939 27.8745 143.722 28.1211 143.458 28.3555C143.194 28.5898 142.87 28.7803 142.484 28.9268C142.103 29.0732 141.651 29.1465 141.129 29.1465ZM157.923 18.3359V29H156.502L151.134 20.7749V29H149.72V18.3359H151.134L156.524 26.583V18.3359H157.923ZM165.072 27.1689V21.0752H166.434V29H165.138L165.072 27.1689ZM165.328 25.499L165.892 25.4844C165.892 26.0117 165.836 26.5 165.724 26.9492C165.616 27.3936 165.44 27.7793 165.196 28.1064C164.952 28.4336 164.632 28.6899 164.237 28.8755C163.841 29.0562 163.36 29.1465 162.794 29.1465C162.408 29.1465 162.054 29.0903 161.732 28.978C161.415 28.8657 161.141 28.6924 160.912 28.458C160.682 28.2236 160.504 27.9185 160.377 27.5425C160.255 27.1665 160.194 26.7148 160.194 26.1875V21.0752H161.549V26.2021C161.549 26.5586 161.588 26.854 161.666 27.0884C161.749 27.3179 161.859 27.501 161.996 27.6377C162.137 27.7695 162.293 27.8623 162.464 27.916C162.64 27.9697 162.821 27.9966 163.006 27.9966C163.583 27.9966 164.039 27.8867 164.376 27.667C164.713 27.4424 164.955 27.1421 165.101 26.7661C165.252 26.3853 165.328 25.9629 165.328 25.499ZM169.847 22.6499V29H168.485V21.0752H169.774L169.847 22.6499ZM169.569 24.7373L168.939 24.7153C168.944 24.1733 169.015 23.6729 169.151 23.2139C169.288 22.75 169.491 22.3472 169.759 22.0054C170.028 21.6636 170.362 21.3999 170.763 21.2144C171.163 21.0239 171.627 20.9287 172.154 20.9287C172.525 20.9287 172.867 20.9824 173.18 21.0898C173.492 21.1924 173.763 21.356 173.993 21.5806C174.222 21.8052 174.4 22.0933 174.527 22.4448C174.654 22.7964 174.718 23.2212 174.718 23.7192V29H173.363V23.7852C173.363 23.3701 173.292 23.0381 173.15 22.7891C173.014 22.54 172.818 22.3594 172.564 22.2471C172.311 22.1299 172.013 22.0713 171.671 22.0713C171.271 22.0713 170.936 22.1421 170.667 22.2837C170.399 22.4253 170.184 22.6206 170.023 22.8696C169.862 23.1187 169.745 23.4043 169.671 23.7266C169.603 24.0439 169.569 24.3809 169.569 24.7373ZM174.703 23.9902L173.795 24.2686C173.8 23.834 173.871 23.4165 174.007 23.0161C174.149 22.6157 174.352 22.2593 174.615 21.9468C174.884 21.6343 175.213 21.3877 175.604 21.207C175.995 21.0215 176.441 20.9287 176.944 20.9287C177.369 20.9287 177.745 20.9849 178.072 21.0972C178.404 21.2095 178.683 21.3828 178.907 21.6172C179.137 21.8467 179.31 22.1421 179.427 22.5034C179.544 22.8647 179.603 23.2944 179.603 23.7925V29H178.241V23.7778C178.241 23.3335 178.17 22.9893 178.028 22.7451C177.892 22.4961 177.696 22.3228 177.442 22.2251C177.193 22.1226 176.896 22.0713 176.549 22.0713C176.251 22.0713 175.987 22.1226 175.758 22.2251C175.528 22.3276 175.335 22.4692 175.179 22.6499C175.023 22.8257 174.903 23.0283 174.82 23.2578C174.742 23.4873 174.703 23.7314 174.703 23.9902ZM181.646 17.75H183.009V27.4619L182.892 29H181.646V17.75ZM188.363 24.9717V25.1255C188.363 25.7017 188.294 26.2363 188.158 26.7295C188.021 27.2178 187.821 27.6426 187.557 28.0039C187.293 28.3652 186.971 28.646 186.59 28.8462C186.209 29.0464 185.772 29.1465 185.279 29.1465C184.776 29.1465 184.334 29.061 183.954 28.8901C183.578 28.7144 183.26 28.4629 183.001 28.1357C182.743 27.8086 182.535 27.4131 182.379 26.9492C182.228 26.4854 182.123 25.9629 182.064 25.3818V24.708C182.123 24.1221 182.228 23.5972 182.379 23.1333C182.535 22.6694 182.743 22.2739 183.001 21.9468C183.26 21.6147 183.578 21.3633 183.954 21.1924C184.33 21.0166 184.767 20.9287 185.265 20.9287C185.763 20.9287 186.205 21.0264 186.59 21.2217C186.976 21.4121 187.298 21.6855 187.557 22.042C187.821 22.3984 188.021 22.8257 188.158 23.3237C188.294 23.8169 188.363 24.3662 188.363 24.9717ZM187 25.1255V24.9717C187 24.5762 186.964 24.2051 186.891 23.8584C186.817 23.5068 186.7 23.1992 186.539 22.9355C186.378 22.667 186.166 22.457 185.902 22.3057C185.638 22.1494 185.313 22.0713 184.928 22.0713C184.586 22.0713 184.288 22.1299 184.034 22.2471C183.785 22.3643 183.573 22.5229 183.397 22.7231C183.221 22.9185 183.077 23.1431 182.965 23.397C182.857 23.646 182.777 23.9048 182.723 24.1733V25.9385C182.801 26.2803 182.928 26.6099 183.104 26.9272C183.285 27.2397 183.524 27.4961 183.822 27.6963C184.125 27.8965 184.498 27.9966 184.942 27.9966C185.309 27.9966 185.621 27.9233 185.88 27.7769C186.144 27.6255 186.356 27.418 186.517 27.1543C186.683 26.8906 186.805 26.5854 186.883 26.2388C186.961 25.8921 187 25.521 187 25.1255ZM193.365 29.1465C192.813 29.1465 192.313 29.0537 191.864 28.8682C191.419 28.6777 191.036 28.4116 190.714 28.0698C190.396 27.728 190.152 27.3228 189.981 26.854C189.811 26.3853 189.725 25.8726 189.725 25.3159V25.0083C189.725 24.3638 189.82 23.79 190.011 23.2871C190.201 22.7793 190.46 22.3496 190.787 21.998C191.114 21.6465 191.485 21.3804 191.9 21.1997C192.315 21.019 192.745 20.9287 193.189 20.9287C193.756 20.9287 194.244 21.0264 194.654 21.2217C195.069 21.417 195.409 21.6904 195.672 22.042C195.936 22.3887 196.131 22.7988 196.258 23.2725C196.385 23.7412 196.449 24.2539 196.449 24.8105V25.4185H190.531V24.3125H195.094V24.21C195.074 23.8584 195.001 23.5166 194.874 23.1846C194.752 22.8525 194.557 22.5791 194.288 22.3643C194.02 22.1494 193.653 22.042 193.189 22.042C192.882 22.042 192.599 22.1079 192.34 22.2397C192.081 22.3667 191.859 22.5571 191.673 22.811C191.488 23.0649 191.344 23.375 191.241 23.7412C191.139 24.1074 191.087 24.5298 191.087 25.0083V25.3159C191.087 25.6919 191.139 26.0459 191.241 26.3779C191.349 26.7051 191.502 26.9932 191.703 27.2422C191.908 27.4912 192.154 27.6865 192.442 27.8281C192.735 27.9697 193.067 28.0405 193.438 28.0405C193.917 28.0405 194.322 27.9429 194.654 27.7476C194.986 27.5522 195.277 27.291 195.526 26.9639L196.346 27.6157C196.175 27.8745 195.958 28.1211 195.694 28.3555C195.431 28.5898 195.106 28.7803 194.72 28.9268C194.339 29.0732 193.888 29.1465 193.365 29.1465ZM199.386 22.3203V29H198.031V21.0752H199.349L199.386 22.3203ZM201.861 21.0312L201.854 22.291C201.742 22.2666 201.634 22.252 201.532 22.2471C201.434 22.2373 201.322 22.2324 201.195 22.2324C200.882 22.2324 200.606 22.2812 200.367 22.3789C200.128 22.4766 199.925 22.6133 199.759 22.7891C199.593 22.9648 199.461 23.1748 199.364 23.4189C199.271 23.6582 199.21 23.9219 199.181 24.21L198.8 24.4297C198.8 23.9512 198.846 23.502 198.939 23.082C199.037 22.6621 199.186 22.291 199.386 21.9688C199.586 21.6416 199.84 21.3877 200.147 21.207C200.46 21.0215 200.831 20.9287 201.261 20.9287C201.358 20.9287 201.471 20.9409 201.598 20.9653C201.725 20.9849 201.812 21.0068 201.861 21.0312Z" fill="#D8000C"/>
<path d="M42.7734 46.9922L44.749 40.0469H45.7061L45.1523 42.7471L43.0264 50H42.0762L42.7734 46.9922ZM40.7295 40.0469L42.3018 46.8555L42.7734 50H41.8301L39.417 40.0469H40.7295ZM48.2627 46.8486L49.8008 40.0469H51.1201L48.7139 50H47.7705L48.2627 46.8486ZM45.8496 40.0469L47.7705 46.9922L48.4678 50H47.5176L45.4668 42.7471L44.9062 40.0469H45.8496ZM55.2422 50.1367C54.7272 50.1367 54.2601 50.0501 53.8408 49.877C53.4261 49.6992 53.0684 49.4508 52.7676 49.1318C52.4714 48.8128 52.2435 48.4346 52.084 47.9971C51.9245 47.5596 51.8447 47.0811 51.8447 46.5615V46.2744C51.8447 45.6729 51.9336 45.1374 52.1113 44.668C52.2891 44.194 52.5306 43.793 52.8359 43.4648C53.1413 43.1367 53.4876 42.8883 53.875 42.7197C54.2624 42.5511 54.6634 42.4668 55.0781 42.4668C55.6068 42.4668 56.0625 42.5579 56.4453 42.7402C56.8327 42.9225 57.1494 43.1777 57.3955 43.5059C57.6416 43.8294 57.8239 44.2122 57.9424 44.6543C58.0609 45.0918 58.1201 45.5703 58.1201 46.0898V46.6572H52.5967V45.625H56.8555V45.5293C56.8372 45.2012 56.7689 44.8822 56.6504 44.5723C56.5365 44.2624 56.3542 44.0072 56.1035 43.8066C55.8529 43.6061 55.5111 43.5059 55.0781 43.5059C54.791 43.5059 54.5267 43.5674 54.2852 43.6904C54.0436 43.8089 53.8363 43.9867 53.6631 44.2236C53.4899 44.4606 53.3555 44.75 53.2598 45.0918C53.1641 45.4336 53.1162 45.8278 53.1162 46.2744V46.5615C53.1162 46.9124 53.1641 47.2428 53.2598 47.5527C53.36 47.8581 53.5036 48.127 53.6904 48.3594C53.8818 48.5918 54.112 48.7741 54.3809 48.9062C54.6543 49.0384 54.9642 49.1045 55.3105 49.1045C55.7572 49.1045 56.1354 49.0133 56.4453 48.8311C56.7552 48.6488 57.0264 48.4049 57.2588 48.0996L58.0244 48.708C57.8649 48.9495 57.6621 49.1797 57.416 49.3984C57.1699 49.6172 56.8669 49.7949 56.5068 49.9316C56.1514 50.0684 55.7298 50.1367 55.2422 50.1367ZM66.0293 49.0977C66.3301 49.0977 66.6081 49.0361 66.8633 48.9131C67.1185 48.79 67.3281 48.6214 67.4922 48.4072C67.6562 48.1885 67.7497 47.9401 67.7725 47.6621H68.9756C68.9528 48.0996 68.8047 48.5075 68.5312 48.8857C68.2624 49.2594 67.9092 49.5625 67.4717 49.7949C67.0342 50.0228 66.5534 50.1367 66.0293 50.1367C65.4733 50.1367 64.988 50.0387 64.5732 49.8428C64.1631 49.6468 63.8213 49.3779 63.5479 49.0361C63.279 48.6943 63.0762 48.3024 62.9395 47.8604C62.8073 47.4137 62.7412 46.9421 62.7412 46.4453V46.1582C62.7412 45.6615 62.8073 45.1921 62.9395 44.75C63.0762 44.3034 63.279 43.9092 63.5479 43.5674C63.8213 43.2256 64.1631 42.9567 64.5732 42.7607C64.988 42.5648 65.4733 42.4668 66.0293 42.4668C66.6081 42.4668 67.1139 42.5853 67.5469 42.8223C67.9798 43.0547 68.3193 43.3737 68.5654 43.7793C68.8161 44.1803 68.9528 44.6361 68.9756 45.1465H67.7725C67.7497 44.8411 67.6631 44.5654 67.5127 44.3193C67.3669 44.0732 67.1663 43.8773 66.9111 43.7314C66.6605 43.5811 66.3665 43.5059 66.0293 43.5059C65.6419 43.5059 65.3161 43.5833 65.0518 43.7383C64.792 43.8887 64.5846 44.0938 64.4297 44.3535C64.2793 44.6087 64.1699 44.8936 64.1016 45.208C64.0378 45.5179 64.0059 45.8346 64.0059 46.1582V46.4453C64.0059 46.7689 64.0378 47.0879 64.1016 47.4023C64.1654 47.7168 64.2725 48.0016 64.4229 48.2568C64.5778 48.512 64.7852 48.7171 65.0449 48.8721C65.3092 49.0225 65.6374 49.0977 66.0293 49.0977ZM74.7588 48.7354V44.9277C74.7588 44.6361 74.6995 44.3831 74.5811 44.1689C74.4671 43.9502 74.2939 43.7816 74.0615 43.6631C73.8291 43.5446 73.542 43.4854 73.2002 43.4854C72.8812 43.4854 72.6009 43.54 72.3594 43.6494C72.1224 43.7588 71.9355 43.9023 71.7988 44.0801C71.6667 44.2578 71.6006 44.4492 71.6006 44.6543H70.3359C70.3359 44.39 70.4043 44.1279 70.541 43.8682C70.6777 43.6084 70.8737 43.3737 71.1289 43.1641C71.3887 42.9499 71.6986 42.7812 72.0586 42.6582C72.4232 42.5306 72.8288 42.4668 73.2754 42.4668C73.8132 42.4668 74.2871 42.5579 74.6973 42.7402C75.112 42.9225 75.4355 43.1982 75.668 43.5674C75.9049 43.932 76.0234 44.39 76.0234 44.9414V48.3867C76.0234 48.6328 76.0439 48.8949 76.085 49.1729C76.1305 49.4508 76.1966 49.6901 76.2832 49.8906V50H74.9639C74.9001 49.8542 74.8499 49.6605 74.8135 49.4189C74.777 49.1729 74.7588 48.945 74.7588 48.7354ZM74.9775 45.5156L74.9912 46.4043H73.7129C73.3529 46.4043 73.0316 46.4339 72.749 46.4932C72.4665 46.5479 72.2295 46.6322 72.0381 46.7461C71.8467 46.86 71.7008 47.0036 71.6006 47.1768C71.5003 47.3454 71.4502 47.5436 71.4502 47.7715C71.4502 48.0039 71.5026 48.2158 71.6074 48.4072C71.7122 48.5986 71.8695 48.7513 72.0791 48.8652C72.2933 48.9746 72.5553 49.0293 72.8652 49.0293C73.2526 49.0293 73.5944 48.9473 73.8906 48.7832C74.1868 48.6191 74.4215 48.4186 74.5947 48.1816C74.7725 47.9447 74.8682 47.7145 74.8818 47.4912L75.4219 48.0996C75.39 48.291 75.3034 48.5029 75.1621 48.7354C75.0208 48.9678 74.8317 49.1911 74.5947 49.4053C74.3623 49.6149 74.0843 49.7904 73.7607 49.9316C73.4417 50.0684 73.0817 50.1367 72.6807 50.1367C72.1794 50.1367 71.7396 50.0387 71.3613 49.8428C70.9876 49.6468 70.696 49.3848 70.4863 49.0566C70.2812 48.724 70.1787 48.3525 70.1787 47.9424C70.1787 47.5459 70.2562 47.1973 70.4111 46.8965C70.5661 46.5911 70.7894 46.3382 71.0811 46.1377C71.3727 45.9326 71.7236 45.7777 72.1338 45.6729C72.5439 45.568 73.002 45.5156 73.5078 45.5156H74.9775ZM79.2773 44.1826V50H78.0127V42.6035H79.209L79.2773 44.1826ZM78.9766 46.0215L78.4502 46.001C78.4548 45.4951 78.5299 45.028 78.6758 44.5996C78.8216 44.1667 79.0267 43.7907 79.291 43.4717C79.5553 43.1527 79.8698 42.9066 80.2344 42.7334C80.6035 42.5557 81.0114 42.4668 81.458 42.4668C81.8226 42.4668 82.1507 42.5169 82.4424 42.6172C82.734 42.7129 82.9824 42.8678 83.1875 43.082C83.3971 43.2962 83.5566 43.5742 83.666 43.916C83.7754 44.2533 83.8301 44.6657 83.8301 45.1533V50H82.5586V45.1396C82.5586 44.7523 82.5016 44.4424 82.3877 44.21C82.2738 43.973 82.1074 43.8021 81.8887 43.6973C81.6699 43.5879 81.401 43.5332 81.082 43.5332C80.7676 43.5332 80.4805 43.5993 80.2207 43.7314C79.9655 43.8636 79.7445 44.0459 79.5576 44.2783C79.3753 44.5107 79.2318 44.7773 79.127 45.0781C79.0267 45.3743 78.9766 45.6888 78.9766 46.0215ZM87.0156 44.1826V50H85.751V42.6035H86.9473L87.0156 44.1826ZM86.7148 46.0215L86.1885 46.001C86.193 45.4951 86.2682 45.028 86.4141 44.5996C86.5599 44.1667 86.765 43.7907 87.0293 43.4717C87.2936 43.1527 87.6081 42.9066 87.9727 42.7334C88.3418 42.5557 88.7497 42.4668 89.1963 42.4668C89.5609 42.4668 89.889 42.5169 90.1807 42.6172C90.4723 42.7129 90.7207 42.8678 90.9258 43.082C91.1354 43.2962 91.2949 43.5742 91.4043 43.916C91.5137 44.2533 91.5684 44.6657 91.5684 45.1533V50H90.2969V45.1396C90.2969 44.7523 90.2399 44.4424 90.126 44.21C90.012 43.973 89.8457 43.8021 89.627 43.6973C89.4082 43.5879 89.1393 43.5332 88.8203 43.5332C88.5059 43.5332 88.2188 43.5993 87.959 43.7314C87.7038 43.8636 87.4827 44.0459 87.2959 44.2783C87.1136 44.5107 86.9701 44.7773 86.8652 45.0781C86.765 45.3743 86.7148 45.6888 86.7148 46.0215ZM93.1543 46.3838V46.2266C93.1543 45.6934 93.2318 45.1989 93.3867 44.7432C93.5417 44.2829 93.765 43.8841 94.0566 43.5469C94.3483 43.2051 94.7015 42.9408 95.1162 42.7539C95.5309 42.5625 95.9958 42.4668 96.5107 42.4668C97.0303 42.4668 97.4974 42.5625 97.9121 42.7539C98.3314 42.9408 98.6868 43.2051 98.9785 43.5469C99.2747 43.8841 99.5003 44.2829 99.6553 44.7432C99.8102 45.1989 99.8877 45.6934 99.8877 46.2266V46.3838C99.8877 46.917 99.8102 47.4115 99.6553 47.8672C99.5003 48.3229 99.2747 48.7217 98.9785 49.0635C98.6868 49.4007 98.3337 49.665 97.9189 49.8564C97.5088 50.0433 97.0439 50.1367 96.5244 50.1367C96.0049 50.1367 95.5378 50.0433 95.123 49.8564C94.7083 49.665 94.3529 49.4007 94.0566 49.0635C93.765 48.7217 93.5417 48.3229 93.3867 47.8672C93.2318 47.4115 93.1543 46.917 93.1543 46.3838ZM94.4189 46.2266V46.3838C94.4189 46.7529 94.4622 47.1016 94.5488 47.4297C94.6354 47.7533 94.7653 48.0404 94.9385 48.291C95.1162 48.5417 95.3372 48.7399 95.6016 48.8857C95.8659 49.027 96.1735 49.0977 96.5244 49.0977C96.8708 49.0977 97.1738 49.027 97.4336 48.8857C97.6979 48.7399 97.9167 48.5417 98.0898 48.291C98.263 48.0404 98.3929 47.7533 98.4795 47.4297C98.5706 47.1016 98.6162 46.7529 98.6162 46.3838V46.2266C98.6162 45.862 98.5706 45.5179 98.4795 45.1943C98.3929 44.8662 98.2607 44.5768 98.083 44.3262C97.9098 44.071 97.6911 43.8704 97.4268 43.7246C97.167 43.5788 96.8617 43.5059 96.5107 43.5059C96.1644 43.5059 95.859 43.5788 95.5947 43.7246C95.335 43.8704 95.1162 44.071 94.9385 44.3262C94.7653 44.5768 94.6354 44.8662 94.5488 45.1943C94.4622 45.5179 94.4189 45.862 94.4189 46.2266ZM104.57 42.6035V43.5742H100.571V42.6035H104.57ZM101.925 40.8057H103.189V48.168C103.189 48.4186 103.228 48.6077 103.306 48.7354C103.383 48.863 103.483 48.9473 103.606 48.9883C103.729 49.0293 103.862 49.0498 104.003 49.0498C104.108 49.0498 104.217 49.0407 104.331 49.0225C104.45 48.9997 104.538 48.9814 104.598 48.9678L104.604 50C104.504 50.0319 104.372 50.0615 104.208 50.0889C104.049 50.1208 103.855 50.1367 103.627 50.1367C103.317 50.1367 103.032 50.0752 102.772 49.9521C102.513 49.8291 102.305 49.624 102.15 49.3369C102 49.0452 101.925 48.6533 101.925 48.1611V40.8057ZM111.215 50H109.95V41.9609C109.95 41.4004 110.06 40.9264 110.278 40.5391C110.497 40.1517 110.809 39.8577 111.215 39.6572C111.62 39.4567 112.101 39.3564 112.657 39.3564C112.985 39.3564 113.307 39.3975 113.621 39.4795C113.936 39.557 114.259 39.6549 114.592 39.7734L114.38 40.8398C114.17 40.7578 113.926 40.6803 113.648 40.6074C113.375 40.5299 113.074 40.4912 112.746 40.4912C112.204 40.4912 111.812 40.6143 111.57 40.8604C111.333 41.1019 111.215 41.4688 111.215 41.9609V50ZM112.726 42.6035V43.5742H108.781V42.6035H112.726ZM115.214 42.6035V50H113.949V42.6035H115.214ZM118.557 44.1826V50H117.292V42.6035H118.488L118.557 44.1826ZM118.256 46.0215L117.729 46.001C117.734 45.4951 117.809 45.028 117.955 44.5996C118.101 44.1667 118.306 43.7907 118.57 43.4717C118.835 43.1527 119.149 42.9066 119.514 42.7334C119.883 42.5557 120.291 42.4668 120.737 42.4668C121.102 42.4668 121.43 42.5169 121.722 42.6172C122.013 42.7129 122.262 42.8678 122.467 43.082C122.676 43.2962 122.836 43.5742 122.945 43.916C123.055 44.2533 123.109 44.6657 123.109 45.1533V50H121.838V45.1396C121.838 44.7523 121.781 44.4424 121.667 44.21C121.553 43.973 121.387 43.8021 121.168 43.6973C120.949 43.5879 120.68 43.5332 120.361 43.5332C120.047 43.5332 119.76 43.5993 119.5 43.7314C119.245 43.8636 119.024 44.0459 118.837 44.2783C118.655 44.5107 118.511 44.7773 118.406 45.0781C118.306 45.3743 118.256 45.6888 118.256 46.0215ZM129.692 48.5645V39.5H130.964V50H129.802L129.692 48.5645ZM124.716 46.3838V46.2402C124.716 45.6751 124.784 45.1624 124.921 44.7021C125.062 44.2373 125.26 43.8385 125.516 43.5059C125.775 43.1732 126.083 42.918 126.438 42.7402C126.799 42.5579 127.2 42.4668 127.642 42.4668C128.106 42.4668 128.512 42.5488 128.858 42.7129C129.209 42.8724 129.506 43.1071 129.747 43.417C129.993 43.7223 130.187 44.0915 130.328 44.5244C130.469 44.9574 130.567 45.4473 130.622 45.9941V46.623C130.572 47.1654 130.474 47.653 130.328 48.0859C130.187 48.5189 129.993 48.888 129.747 49.1934C129.506 49.4987 129.209 49.7334 128.858 49.8975C128.507 50.057 128.097 50.1367 127.628 50.1367C127.195 50.1367 126.799 50.0433 126.438 49.8564C126.083 49.6696 125.775 49.4076 125.516 49.0703C125.26 48.7331 125.062 48.3366 124.921 47.8809C124.784 47.4206 124.716 46.9215 124.716 46.3838ZM125.987 46.2402V46.3838C125.987 46.7529 126.024 47.0993 126.097 47.4229C126.174 47.7464 126.293 48.0312 126.452 48.2773C126.612 48.5234 126.814 48.7171 127.061 48.8584C127.307 48.9951 127.601 49.0635 127.942 49.0635C128.362 49.0635 128.706 48.9746 128.975 48.7969C129.248 48.6191 129.467 48.3844 129.631 48.0928C129.795 47.8011 129.923 47.4844 130.014 47.1426V45.4951C129.959 45.2445 129.879 45.0029 129.774 44.7705C129.674 44.5335 129.542 44.3239 129.378 44.1416C129.218 43.9548 129.02 43.8066 128.783 43.6973C128.551 43.5879 128.275 43.5332 127.956 43.5332C127.61 43.5332 127.311 43.6061 127.061 43.752C126.814 43.8932 126.612 44.0892 126.452 44.3398C126.293 44.5859 126.174 44.873 126.097 45.2012C126.024 45.5247 125.987 45.8711 125.987 46.2402ZM140.767 48.7354V44.9277C140.767 44.6361 140.707 44.3831 140.589 44.1689C140.475 43.9502 140.302 43.7816 140.069 43.6631C139.837 43.5446 139.55 43.4854 139.208 43.4854C138.889 43.4854 138.609 43.54 138.367 43.6494C138.13 43.7588 137.943 43.9023 137.807 44.0801C137.674 44.2578 137.608 44.4492 137.608 44.6543H136.344C136.344 44.39 136.412 44.1279 136.549 43.8682C136.686 43.6084 136.882 43.3737 137.137 43.1641C137.396 42.9499 137.706 42.7812 138.066 42.6582C138.431 42.5306 138.837 42.4668 139.283 42.4668C139.821 42.4668 140.295 42.5579 140.705 42.7402C141.12 42.9225 141.443 43.1982 141.676 43.5674C141.913 43.932 142.031 44.39 142.031 44.9414V48.3867C142.031 48.6328 142.052 48.8949 142.093 49.1729C142.138 49.4508 142.204 49.6901 142.291 49.8906V50H140.972C140.908 49.8542 140.858 49.6605 140.821 49.4189C140.785 49.1729 140.767 48.945 140.767 48.7354ZM140.985 45.5156L140.999 46.4043H139.721C139.361 46.4043 139.039 46.4339 138.757 46.4932C138.474 46.5479 138.237 46.6322 138.046 46.7461C137.854 46.86 137.709 47.0036 137.608 47.1768C137.508 47.3454 137.458 47.5436 137.458 47.7715C137.458 48.0039 137.51 48.2158 137.615 48.4072C137.72 48.5986 137.877 48.7513 138.087 48.8652C138.301 48.9746 138.563 49.0293 138.873 49.0293C139.26 49.0293 139.602 48.9473 139.898 48.7832C140.195 48.6191 140.429 48.4186 140.603 48.1816C140.78 47.9447 140.876 47.7145 140.89 47.4912L141.43 48.0996C141.398 48.291 141.311 48.5029 141.17 48.7354C141.029 48.9678 140.84 49.1911 140.603 49.4053C140.37 49.6149 140.092 49.7904 139.769 49.9316C139.45 50.0684 139.09 50.1367 138.688 50.1367C138.187 50.1367 137.747 50.0387 137.369 49.8428C136.995 49.6468 136.704 49.3848 136.494 49.0566C136.289 48.724 136.187 48.3525 136.187 47.9424C136.187 47.5459 136.264 47.1973 136.419 46.8965C136.574 46.5911 136.797 46.3382 137.089 46.1377C137.381 45.9326 137.731 45.7777 138.142 45.6729C138.552 45.568 139.01 45.5156 139.516 45.5156H140.985ZM145.285 44.1826V50H144.021V42.6035H145.217L145.285 44.1826ZM144.984 46.0215L144.458 46.001C144.463 45.4951 144.538 45.028 144.684 44.5996C144.829 44.1667 145.035 43.7907 145.299 43.4717C145.563 43.1527 145.878 42.9066 146.242 42.7334C146.611 42.5557 147.019 42.4668 147.466 42.4668C147.83 42.4668 148.159 42.5169 148.45 42.6172C148.742 42.7129 148.99 42.8678 149.195 43.082C149.405 43.2962 149.564 43.5742 149.674 43.916C149.783 44.2533 149.838 44.6657 149.838 45.1533V50H148.566V45.1396C148.566 44.7523 148.509 44.4424 148.396 44.21C148.282 43.973 148.115 43.8021 147.896 43.6973C147.678 43.5879 147.409 43.5332 147.09 43.5332C146.775 43.5332 146.488 43.5993 146.229 43.7314C145.973 43.8636 145.752 44.0459 145.565 44.2783C145.383 44.5107 145.24 44.7773 145.135 45.0781C145.035 45.3743 144.984 45.6888 144.984 46.0215ZM159.593 48.7354V44.9277C159.593 44.6361 159.534 44.3831 159.415 44.1689C159.301 43.9502 159.128 43.7816 158.896 43.6631C158.663 43.5446 158.376 43.4854 158.034 43.4854C157.715 43.4854 157.435 43.54 157.193 43.6494C156.956 43.7588 156.77 43.9023 156.633 44.0801C156.501 44.2578 156.435 44.4492 156.435 44.6543H155.17C155.17 44.39 155.238 44.1279 155.375 43.8682C155.512 43.6084 155.708 43.3737 155.963 43.1641C156.223 42.9499 156.533 42.7812 156.893 42.6582C157.257 42.5306 157.663 42.4668 158.109 42.4668C158.647 42.4668 159.121 42.5579 159.531 42.7402C159.946 42.9225 160.27 43.1982 160.502 43.5674C160.739 43.932 160.857 44.39 160.857 44.9414V48.3867C160.857 48.6328 160.878 48.8949 160.919 49.1729C160.965 49.4508 161.031 49.6901 161.117 49.8906V50H159.798C159.734 49.8542 159.684 49.6605 159.647 49.4189C159.611 49.1729 159.593 48.945 159.593 48.7354ZM159.812 45.5156L159.825 46.4043H158.547C158.187 46.4043 157.866 46.4339 157.583 46.4932C157.3 46.5479 157.063 46.6322 156.872 46.7461C156.681 46.86 156.535 47.0036 156.435 47.1768C156.334 47.3454 156.284 47.5436 156.284 47.7715C156.284 48.0039 156.337 48.2158 156.441 48.4072C156.546 48.5986 156.703 48.7513 156.913 48.8652C157.127 48.9746 157.389 49.0293 157.699 49.0293C158.087 49.0293 158.428 48.9473 158.725 48.7832C159.021 48.6191 159.256 48.4186 159.429 48.1816C159.606 47.9447 159.702 47.7145 159.716 47.4912L160.256 48.0996C160.224 48.291 160.137 48.5029 159.996 48.7354C159.855 48.9678 159.666 49.1911 159.429 49.4053C159.196 49.6149 158.918 49.7904 158.595 49.9316C158.276 50.0684 157.916 50.1367 157.515 50.1367C157.013 50.1367 156.574 50.0387 156.195 49.8428C155.822 49.6468 155.53 49.3848 155.32 49.0566C155.115 48.724 155.013 48.3525 155.013 47.9424C155.013 47.5459 155.09 47.1973 155.245 46.8965C155.4 46.5911 155.623 46.3382 155.915 46.1377C156.207 45.9326 156.558 45.7777 156.968 45.6729C157.378 45.568 157.836 45.5156 158.342 45.5156H159.812ZM165.807 49.0977C166.107 49.0977 166.385 49.0361 166.641 48.9131C166.896 48.79 167.105 48.6214 167.27 48.4072C167.434 48.1885 167.527 47.9401 167.55 47.6621H168.753C168.73 48.0996 168.582 48.5075 168.309 48.8857C168.04 49.2594 167.687 49.5625 167.249 49.7949C166.812 50.0228 166.331 50.1367 165.807 50.1367C165.251 50.1367 164.765 50.0387 164.351 49.8428C163.94 49.6468 163.599 49.3779 163.325 49.0361C163.056 48.6943 162.854 48.3024 162.717 47.8604C162.585 47.4137 162.519 46.9421 162.519 46.4453V46.1582C162.519 45.6615 162.585 45.1921 162.717 44.75C162.854 44.3034 163.056 43.9092 163.325 43.5674C163.599 43.2256 163.94 42.9567 164.351 42.7607C164.765 42.5648 165.251 42.4668 165.807 42.4668C166.385 42.4668 166.891 42.5853 167.324 42.8223C167.757 43.0547 168.097 43.3737 168.343 43.7793C168.593 44.1803 168.73 44.6361 168.753 45.1465H167.55C167.527 44.8411 167.44 44.5654 167.29 44.3193C167.144 44.0732 166.944 43.8773 166.688 43.7314C166.438 43.5811 166.144 43.5059 165.807 43.5059C165.419 43.5059 165.093 43.5833 164.829 43.7383C164.569 43.8887 164.362 44.0938 164.207 44.3535C164.057 44.6087 163.947 44.8936 163.879 45.208C163.815 45.5179 163.783 45.8346 163.783 46.1582V46.4453C163.783 46.7689 163.815 47.0879 163.879 47.4023C163.943 47.7168 164.05 48.0016 164.2 48.2568C164.355 48.512 164.562 48.7171 164.822 48.8721C165.087 49.0225 165.415 49.0977 165.807 49.0977ZM173.135 49.0977C173.436 49.0977 173.714 49.0361 173.969 48.9131C174.224 48.79 174.434 48.6214 174.598 48.4072C174.762 48.1885 174.855 47.9401 174.878 47.6621H176.081C176.058 48.0996 175.91 48.5075 175.637 48.8857C175.368 49.2594 175.015 49.5625 174.577 49.7949C174.14 50.0228 173.659 50.1367 173.135 50.1367C172.579 50.1367 172.093 50.0387 171.679 49.8428C171.269 49.6468 170.927 49.3779 170.653 49.0361C170.384 48.6943 170.182 48.3024 170.045 47.8604C169.913 47.4137 169.847 46.9421 169.847 46.4453V46.1582C169.847 45.6615 169.913 45.1921 170.045 44.75C170.182 44.3034 170.384 43.9092 170.653 43.5674C170.927 43.2256 171.269 42.9567 171.679 42.7607C172.093 42.5648 172.579 42.4668 173.135 42.4668C173.714 42.4668 174.219 42.5853 174.652 42.8223C175.085 43.0547 175.425 43.3737 175.671 43.7793C175.922 44.1803 176.058 44.6361 176.081 45.1465H174.878C174.855 44.8411 174.769 44.5654 174.618 44.3193C174.472 44.0732 174.272 43.8773 174.017 43.7314C173.766 43.5811 173.472 43.5059 173.135 43.5059C172.747 43.5059 172.422 43.5833 172.157 43.7383C171.897 43.8887 171.69 44.0938 171.535 44.3535C171.385 44.6087 171.275 44.8936 171.207 45.208C171.143 45.5179 171.111 45.8346 171.111 46.1582V46.4453C171.111 46.7689 171.143 47.0879 171.207 47.4023C171.271 47.7168 171.378 48.0016 171.528 48.2568C171.683 48.512 171.891 48.7171 172.15 48.8721C172.415 49.0225 172.743 49.0977 173.135 49.0977ZM177.168 46.3838V46.2266C177.168 45.6934 177.245 45.1989 177.4 44.7432C177.555 44.2829 177.779 43.8841 178.07 43.5469C178.362 43.2051 178.715 42.9408 179.13 42.7539C179.545 42.5625 180.009 42.4668 180.524 42.4668C181.044 42.4668 181.511 42.5625 181.926 42.7539C182.345 42.9408 182.701 43.2051 182.992 43.5469C183.288 43.8841 183.514 44.2829 183.669 44.7432C183.824 45.1989 183.901 45.6934 183.901 46.2266V46.3838C183.901 46.917 183.824 47.4115 183.669 47.8672C183.514 48.3229 183.288 48.7217 182.992 49.0635C182.701 49.4007 182.347 49.665 181.933 49.8564C181.522 50.0433 181.058 50.1367 180.538 50.1367C180.019 50.1367 179.551 50.0433 179.137 49.8564C178.722 49.665 178.367 49.4007 178.07 49.0635C177.779 48.7217 177.555 48.3229 177.4 47.8672C177.245 47.4115 177.168 46.917 177.168 46.3838ZM178.433 46.2266V46.3838C178.433 46.7529 178.476 47.1016 178.562 47.4297C178.649 47.7533 178.779 48.0404 178.952 48.291C179.13 48.5417 179.351 48.7399 179.615 48.8857C179.88 49.027 180.187 49.0977 180.538 49.0977C180.884 49.0977 181.188 49.027 181.447 48.8857C181.712 48.7399 181.93 48.5417 182.104 48.291C182.277 48.0404 182.407 47.7533 182.493 47.4297C182.584 47.1016 182.63 46.7529 182.63 46.3838V46.2266C182.63 45.862 182.584 45.5179 182.493 45.1943C182.407 44.8662 182.274 44.5768 182.097 44.3262C181.924 44.071 181.705 43.8704 181.44 43.7246C181.181 43.5788 180.875 43.5059 180.524 43.5059C180.178 43.5059 179.873 43.5788 179.608 43.7246C179.349 43.8704 179.13 44.071 178.952 44.3262C178.779 44.5768 178.649 44.8662 178.562 45.1943C178.476 45.5179 178.433 45.862 178.433 46.2266ZM190.013 48.291V42.6035H191.284V50H190.074L190.013 48.291ZM190.252 46.7324L190.778 46.7188C190.778 47.2109 190.726 47.6667 190.621 48.0859C190.521 48.5007 190.357 48.8607 190.129 49.166C189.901 49.4714 189.603 49.7106 189.233 49.8838C188.864 50.0524 188.415 50.1367 187.887 50.1367C187.527 50.1367 187.196 50.0843 186.896 49.9795C186.599 49.8747 186.344 49.7129 186.13 49.4941C185.916 49.2754 185.749 48.9906 185.631 48.6396C185.517 48.2887 185.46 47.8672 185.46 47.375V42.6035H186.725V47.3887C186.725 47.7214 186.761 47.9971 186.834 48.2158C186.911 48.43 187.014 48.6009 187.142 48.7285C187.274 48.8516 187.42 48.9382 187.579 48.9883C187.743 49.0384 187.912 49.0635 188.085 49.0635C188.623 49.0635 189.049 48.9609 189.363 48.7559C189.678 48.5462 189.903 48.266 190.04 47.915C190.181 47.5596 190.252 47.1654 190.252 46.7324ZM194.477 44.1826V50H193.212V42.6035H194.408L194.477 44.1826ZM194.176 46.0215L193.649 46.001C193.654 45.4951 193.729 45.028 193.875 44.5996C194.021 44.1667 194.226 43.7907 194.49 43.4717C194.755 43.1527 195.069 42.9066 195.434 42.7334C195.803 42.5557 196.211 42.4668 196.657 42.4668C197.022 42.4668 197.35 42.5169 197.642 42.6172C197.933 42.7129 198.182 42.8678 198.387 43.082C198.596 43.2962 198.756 43.5742 198.865 43.916C198.975 44.2533 199.029 44.6657 199.029 45.1533V50H197.758V45.1396C197.758 44.7523 197.701 44.4424 197.587 44.21C197.473 43.973 197.307 43.8021 197.088 43.6973C196.869 43.5879 196.6 43.5332 196.281 43.5332C195.967 43.5332 195.68 43.5993 195.42 43.7314C195.165 43.8636 194.944 44.0459 194.757 44.2783C194.575 44.5107 194.431 44.7773 194.326 45.0781C194.226 45.3743 194.176 45.6888 194.176 46.0215ZM204.047 42.6035V43.5742H200.048V42.6035H204.047ZM201.401 40.8057H202.666V48.168C202.666 48.4186 202.705 48.6077 202.782 48.7354C202.86 48.863 202.96 48.9473 203.083 48.9883C203.206 49.0293 203.338 49.0498 203.479 49.0498C203.584 49.0498 203.694 49.0407 203.808 49.0225C203.926 48.9997 204.015 48.9814 204.074 48.9678L204.081 50C203.981 50.0319 203.849 50.0615 203.685 50.0889C203.525 50.1208 203.331 50.1367 203.104 50.1367C202.794 50.1367 202.509 50.0752 202.249 49.9521C201.989 49.8291 201.782 49.624 201.627 49.3369C201.477 49.0452 201.401 48.6533 201.401 48.1611V40.8057ZM210.876 48.6875L212.776 42.6035H213.61L213.446 43.8135L211.512 50H210.698L210.876 48.6875ZM209.598 42.6035L211.218 48.7559L211.334 50H210.479L208.333 42.6035H209.598ZM215.429 48.708L216.974 42.6035H218.231L216.085 50H215.237L215.429 48.708ZM213.795 42.6035L215.654 48.585L215.866 50H215.06L213.07 43.7998L212.906 42.6035H213.795ZM220.904 42.6035V50H219.633V42.6035H220.904ZM219.537 40.6416C219.537 40.4365 219.599 40.2633 219.722 40.1221C219.849 39.9808 220.036 39.9102 220.282 39.9102C220.524 39.9102 220.708 39.9808 220.836 40.1221C220.968 40.2633 221.034 40.4365 221.034 40.6416C221.034 40.8376 220.968 41.0062 220.836 41.1475C220.708 41.2842 220.524 41.3525 220.282 41.3525C220.036 41.3525 219.849 41.2842 219.722 41.1475C219.599 41.0062 219.537 40.8376 219.537 40.6416ZM226.031 42.6035V43.5742H222.032V42.6035H226.031ZM223.386 40.8057H224.65V48.168C224.65 48.4186 224.689 48.6077 224.767 48.7354C224.844 48.863 224.944 48.9473 225.067 48.9883C225.19 49.0293 225.323 49.0498 225.464 49.0498C225.569 49.0498 225.678 49.0407 225.792 49.0225C225.91 48.9997 225.999 48.9814 226.059 48.9678L226.065 50C225.965 50.0319 225.833 50.0615 225.669 50.0889C225.509 50.1208 225.316 50.1367 225.088 50.1367C224.778 50.1367 224.493 50.0752 224.233 49.9521C223.974 49.8291 223.766 49.624 223.611 49.3369C223.461 49.0452 223.386 48.6533 223.386 48.1611V40.8057ZM228.779 39.5V50H227.515V39.5H228.779ZM228.479 46.0215L227.952 46.001C227.957 45.4951 228.032 45.028 228.178 44.5996C228.324 44.1667 228.529 43.7907 228.793 43.4717C229.057 43.1527 229.372 42.9066 229.736 42.7334C230.105 42.5557 230.513 42.4668 230.96 42.4668C231.325 42.4668 231.653 42.5169 231.944 42.6172C232.236 42.7129 232.484 42.8678 232.689 43.082C232.899 43.2962 233.059 43.5742 233.168 43.916C233.277 44.2533 233.332 44.6657 233.332 45.1533V50H232.061V45.1396C232.061 44.7523 232.004 44.4424 231.89 44.21C231.776 43.973 231.609 43.8021 231.391 43.6973C231.172 43.5879 230.903 43.5332 230.584 43.5332C230.27 43.5332 229.982 43.5993 229.723 43.7314C229.467 43.8636 229.246 44.0459 229.06 44.2783C228.877 44.5107 228.734 44.7773 228.629 45.0781C228.529 45.3743 228.479 45.6888 228.479 46.0215ZM241.795 42.6035V43.5742H237.796V42.6035H241.795ZM239.149 40.8057H240.414V48.168C240.414 48.4186 240.453 48.6077 240.53 48.7354C240.608 48.863 240.708 48.9473 240.831 48.9883C240.954 49.0293 241.086 49.0498 241.228 49.0498C241.332 49.0498 241.442 49.0407 241.556 49.0225C241.674 48.9997 241.763 48.9814 241.822 48.9678L241.829 50C241.729 50.0319 241.597 50.0615 241.433 50.0889C241.273 50.1208 241.079 50.1367 240.852 50.1367C240.542 50.1367 240.257 50.0752 239.997 49.9521C239.737 49.8291 239.53 49.624 239.375 49.3369C239.225 49.0452 239.149 48.6533 239.149 48.1611V40.8057ZM244.543 39.5V50H243.278V39.5H244.543ZM244.242 46.0215L243.716 46.001C243.72 45.4951 243.796 45.028 243.941 44.5996C244.087 44.1667 244.292 43.7907 244.557 43.4717C244.821 43.1527 245.135 42.9066 245.5 42.7334C245.869 42.5557 246.277 42.4668 246.724 42.4668C247.088 42.4668 247.416 42.5169 247.708 42.6172C248 42.7129 248.248 42.8678 248.453 43.082C248.663 43.2962 248.822 43.5742 248.932 43.916C249.041 44.2533 249.096 44.6657 249.096 45.1533V50H247.824V45.1396C247.824 44.7523 247.767 44.4424 247.653 44.21C247.539 43.973 247.373 43.8021 247.154 43.6973C246.936 43.5879 246.667 43.5332 246.348 43.5332C246.033 43.5332 245.746 43.5993 245.486 43.7314C245.231 43.8636 245.01 44.0459 244.823 44.2783C244.641 44.5107 244.497 44.7773 244.393 45.0781C244.292 45.3743 244.242 45.6888 244.242 46.0215ZM255.351 48.7354V44.9277C255.351 44.6361 255.291 44.3831 255.173 44.1689C255.059 43.9502 254.886 43.7816 254.653 43.6631C254.421 43.5446 254.134 43.4854 253.792 43.4854C253.473 43.4854 253.193 43.54 252.951 43.6494C252.714 43.7588 252.527 43.9023 252.391 44.0801C252.258 44.2578 252.192 44.4492 252.192 44.6543H250.928C250.928 44.39 250.996 44.1279 251.133 43.8682C251.27 43.6084 251.465 43.3737 251.721 43.1641C251.98 42.9499 252.29 42.7812 252.65 42.6582C253.015 42.5306 253.421 42.4668 253.867 42.4668C254.405 42.4668 254.879 42.5579 255.289 42.7402C255.704 42.9225 256.027 43.1982 256.26 43.5674C256.497 43.932 256.615 44.39 256.615 44.9414V48.3867C256.615 48.6328 256.636 48.8949 256.677 49.1729C256.722 49.4508 256.788 49.6901 256.875 49.8906V50H255.556C255.492 49.8542 255.442 49.6605 255.405 49.4189C255.369 49.1729 255.351 48.945 255.351 48.7354ZM255.569 45.5156L255.583 46.4043H254.305C253.945 46.4043 253.623 46.4339 253.341 46.4932C253.058 46.5479 252.821 46.6322 252.63 46.7461C252.438 46.86 252.293 47.0036 252.192 47.1768C252.092 47.3454 252.042 47.5436 252.042 47.7715C252.042 48.0039 252.094 48.2158 252.199 48.4072C252.304 48.5986 252.461 48.7513 252.671 48.8652C252.885 48.9746 253.147 49.0293 253.457 49.0293C253.844 49.0293 254.186 48.9473 254.482 48.7832C254.779 48.6191 255.013 48.4186 255.187 48.1816C255.364 47.9447 255.46 47.7145 255.474 47.4912L256.014 48.0996C255.982 48.291 255.895 48.5029 255.754 48.7354C255.613 48.9678 255.424 49.1911 255.187 49.4053C254.954 49.6149 254.676 49.7904 254.353 49.9316C254.034 50.0684 253.674 50.1367 253.272 50.1367C252.771 50.1367 252.331 50.0387 251.953 49.8428C251.579 49.6468 251.288 49.3848 251.078 49.0566C250.873 48.724 250.771 48.3525 250.771 47.9424C250.771 47.5459 250.848 47.1973 251.003 46.8965C251.158 46.5911 251.381 46.3382 251.673 46.1377C251.965 45.9326 252.315 45.7777 252.726 45.6729C253.136 45.568 253.594 45.5156 254.1 45.5156H255.569ZM261.701 42.6035V43.5742H257.702V42.6035H261.701ZM259.056 40.8057H260.32V48.168C260.32 48.4186 260.359 48.6077 260.437 48.7354C260.514 48.863 260.614 48.9473 260.737 48.9883C260.86 49.0293 260.993 49.0498 261.134 49.0498C261.239 49.0498 261.348 49.0407 261.462 49.0225C261.58 48.9997 261.669 48.9814 261.729 48.9678L261.735 50C261.635 50.0319 261.503 50.0615 261.339 50.0889C261.179 50.1208 260.986 50.1367 260.758 50.1367C260.448 50.1367 260.163 50.0752 259.903 49.9521C259.644 49.8291 259.436 49.624 259.281 49.3369C259.131 49.0452 259.056 48.6533 259.056 48.1611V40.8057ZM267.915 44.0732V50H266.644V42.6035H267.847L267.915 44.0732ZM267.655 46.0215L267.067 46.001C267.072 45.4951 267.138 45.028 267.266 44.5996C267.393 44.1667 267.582 43.7907 267.833 43.4717C268.084 43.1527 268.396 42.9066 268.77 42.7334C269.143 42.5557 269.576 42.4668 270.068 42.4668C270.415 42.4668 270.734 42.5169 271.025 42.6172C271.317 42.7129 271.57 42.8656 271.784 43.0752C271.998 43.2848 272.165 43.5537 272.283 43.8818C272.402 44.21 272.461 44.6064 272.461 45.0713V50H271.196V45.1328C271.196 44.7454 271.13 44.4355 270.998 44.2031C270.87 43.9707 270.688 43.8021 270.451 43.6973C270.214 43.5879 269.936 43.5332 269.617 43.5332C269.243 43.5332 268.931 43.5993 268.681 43.7314C268.43 43.8636 268.229 44.0459 268.079 44.2783C267.929 44.5107 267.819 44.7773 267.751 45.0781C267.687 45.3743 267.655 45.6888 267.655 46.0215ZM272.447 45.3242L271.6 45.584C271.604 45.1784 271.67 44.7887 271.798 44.415C271.93 44.0413 272.119 43.7087 272.365 43.417C272.616 43.1253 272.924 42.8952 273.288 42.7266C273.653 42.5534 274.07 42.4668 274.539 42.4668C274.936 42.4668 275.286 42.5192 275.592 42.624C275.902 42.7288 276.161 42.8906 276.371 43.1094C276.585 43.3236 276.747 43.5993 276.856 43.9365C276.966 44.2738 277.021 44.6748 277.021 45.1396V50H275.749V45.126C275.749 44.7113 275.683 44.39 275.551 44.1621C275.423 43.9297 275.241 43.7679 275.004 43.6768C274.771 43.5811 274.493 43.5332 274.17 43.5332C273.892 43.5332 273.646 43.5811 273.432 43.6768C273.217 43.7725 273.037 43.9046 272.892 44.0732C272.746 44.2373 272.634 44.4264 272.557 44.6406C272.484 44.8548 272.447 45.0827 272.447 45.3242ZM278.6 46.3838V46.2266C278.6 45.6934 278.677 45.1989 278.832 44.7432C278.987 44.2829 279.21 43.8841 279.502 43.5469C279.794 43.2051 280.147 42.9408 280.562 42.7539C280.976 42.5625 281.441 42.4668 281.956 42.4668C282.476 42.4668 282.943 42.5625 283.357 42.7539C283.777 42.9408 284.132 43.2051 284.424 43.5469C284.72 43.8841 284.946 44.2829 285.101 44.7432C285.256 45.1989 285.333 45.6934 285.333 46.2266V46.3838C285.333 46.917 285.256 47.4115 285.101 47.8672C284.946 48.3229 284.72 48.7217 284.424 49.0635C284.132 49.4007 283.779 49.665 283.364 49.8564C282.954 50.0433 282.489 50.1367 281.97 50.1367C281.45 50.1367 280.983 50.0433 280.568 49.8564C280.154 49.665 279.798 49.4007 279.502 49.0635C279.21 48.7217 278.987 48.3229 278.832 47.8672C278.677 47.4115 278.6 46.917 278.6 46.3838ZM279.864 46.2266V46.3838C279.864 46.7529 279.908 47.1016 279.994 47.4297C280.081 47.7533 280.211 48.0404 280.384 48.291C280.562 48.5417 280.783 48.7399 281.047 48.8857C281.311 49.027 281.619 49.0977 281.97 49.0977C282.316 49.0977 282.619 49.027 282.879 48.8857C283.143 48.7399 283.362 48.5417 283.535 48.291C283.708 48.0404 283.838 47.7533 283.925 47.4297C284.016 47.1016 284.062 46.7529 284.062 46.3838V46.2266C284.062 45.862 284.016 45.5179 283.925 45.1943C283.838 44.8662 283.706 44.5768 283.528 44.3262C283.355 44.071 283.136 43.8704 282.872 43.7246C282.612 43.5788 282.307 43.5059 281.956 43.5059C281.61 43.5059 281.304 43.5788 281.04 43.7246C280.78 43.8704 280.562 44.071 280.384 44.3262C280.211 44.5768 280.081 44.8662 279.994 45.1943C279.908 45.5179 279.864 45.862 279.864 46.2266ZM286.912 39.5H288.184V48.5645L288.074 50H286.912V39.5ZM293.181 46.2402V46.3838C293.181 46.9215 293.117 47.4206 292.989 47.8809C292.862 48.3366 292.675 48.7331 292.429 49.0703C292.183 49.4076 291.882 49.6696 291.526 49.8564C291.171 50.0433 290.763 50.1367 290.303 50.1367C289.833 50.1367 289.421 50.057 289.065 49.8975C288.715 49.7334 288.418 49.4987 288.177 49.1934C287.935 48.888 287.742 48.5189 287.596 48.0859C287.454 47.653 287.356 47.1654 287.302 46.623V45.9941C287.356 45.4473 287.454 44.9574 287.596 44.5244C287.742 44.0915 287.935 43.7223 288.177 43.417C288.418 43.1071 288.715 42.8724 289.065 42.7129C289.416 42.5488 289.824 42.4668 290.289 42.4668C290.754 42.4668 291.166 42.5579 291.526 42.7402C291.886 42.918 292.187 43.1732 292.429 43.5059C292.675 43.8385 292.862 44.2373 292.989 44.7021C293.117 45.1624 293.181 45.6751 293.181 46.2402ZM291.909 46.3838V46.2402C291.909 45.8711 291.875 45.5247 291.807 45.2012C291.738 44.873 291.629 44.5859 291.479 44.3398C291.328 44.0892 291.13 43.8932 290.884 43.752C290.638 43.6061 290.335 43.5332 289.975 43.5332C289.656 43.5332 289.378 43.5879 289.141 43.6973C288.908 43.8066 288.71 43.9548 288.546 44.1416C288.382 44.3239 288.247 44.5335 288.143 44.7705C288.042 45.0029 287.967 45.2445 287.917 45.4951V47.1426C287.99 47.4616 288.108 47.7692 288.272 48.0654C288.441 48.3571 288.664 48.5964 288.942 48.7832C289.225 48.9701 289.574 49.0635 289.988 49.0635C290.33 49.0635 290.622 48.9951 290.863 48.8584C291.109 48.7171 291.308 48.5234 291.458 48.2773C291.613 48.0312 291.727 47.7464 291.8 47.4229C291.873 47.0993 291.909 46.7529 291.909 46.3838ZM296.154 42.6035V50H294.883V42.6035H296.154ZM294.787 40.6416C294.787 40.4365 294.849 40.2633 294.972 40.1221C295.099 39.9808 295.286 39.9102 295.532 39.9102C295.774 39.9102 295.958 39.9808 296.086 40.1221C296.218 40.2633 296.284 40.4365 296.284 40.6416C296.284 40.8376 296.218 41.0062 296.086 41.1475C295.958 41.2842 295.774 41.3525 295.532 41.3525C295.286 41.3525 295.099 41.2842 294.972 41.1475C294.849 41.0062 294.787 40.8376 294.787 40.6416ZM299.559 39.5V50H298.287V39.5H299.559ZM304.658 50.1367C304.143 50.1367 303.676 50.0501 303.257 49.877C302.842 49.6992 302.484 49.4508 302.184 49.1318C301.887 48.8128 301.66 48.4346 301.5 47.9971C301.34 47.5596 301.261 47.0811 301.261 46.5615V46.2744C301.261 45.6729 301.35 45.1374 301.527 44.668C301.705 44.194 301.947 43.793 302.252 43.4648C302.557 43.1367 302.904 42.8883 303.291 42.7197C303.678 42.5511 304.079 42.4668 304.494 42.4668C305.023 42.4668 305.479 42.5579 305.861 42.7402C306.249 42.9225 306.565 43.1777 306.812 43.5059C307.058 43.8294 307.24 44.2122 307.358 44.6543C307.477 45.0918 307.536 45.5703 307.536 46.0898V46.6572H302.013V45.625H306.271V45.5293C306.253 45.2012 306.185 44.8822 306.066 44.5723C305.952 44.2624 305.77 44.0072 305.52 43.8066C305.269 43.6061 304.927 43.5059 304.494 43.5059C304.207 43.5059 303.943 43.5674 303.701 43.6904C303.46 43.8089 303.252 43.9867 303.079 44.2236C302.906 44.4606 302.771 44.75 302.676 45.0918C302.58 45.4336 302.532 45.8278 302.532 46.2744V46.5615C302.532 46.9124 302.58 47.2428 302.676 47.5527C302.776 47.8581 302.92 48.127 303.106 48.3594C303.298 48.5918 303.528 48.7741 303.797 48.9062C304.07 49.0384 304.38 49.1045 304.727 49.1045C305.173 49.1045 305.551 49.0133 305.861 48.8311C306.171 48.6488 306.442 48.4049 306.675 48.0996L307.44 48.708C307.281 48.9495 307.078 49.1797 306.832 49.3984C306.586 49.6172 306.283 49.7949 305.923 49.9316C305.567 50.0684 305.146 50.1367 304.658 50.1367ZM41.2285 60.1826V66H39.9639V58.6035H41.1602L41.2285 60.1826ZM40.9277 62.0215L40.4014 62.001C40.4059 61.4951 40.4811 61.028 40.627 60.5996C40.7728 60.1667 40.9779 59.7907 41.2422 59.4717C41.5065 59.1527 41.821 58.9066 42.1855 58.7334C42.5547 58.5557 42.9626 58.4668 43.4092 58.4668C43.7738 58.4668 44.1019 58.5169 44.3936 58.6172C44.6852 58.7129 44.9336 58.8678 45.1387 59.082C45.3483 59.2962 45.5078 59.5742 45.6172 59.916C45.7266 60.2533 45.7812 60.6657 45.7812 61.1533V66H44.5098V61.1396C44.5098 60.7523 44.4528 60.4424 44.3389 60.21C44.2249 59.973 44.0586 59.8021 43.8398 59.6973C43.6211 59.5879 43.3522 59.5332 43.0332 59.5332C42.7188 59.5332 42.4316 59.5993 42.1719 59.7314C41.9167 59.8636 41.6956 60.0459 41.5088 60.2783C41.3265 60.5107 41.1829 60.7773 41.0781 61.0781C40.9779 61.3743 40.9277 61.6888 40.9277 62.0215ZM52.2275 64.291V58.6035H53.499V66H52.2891L52.2275 64.291ZM52.4668 62.7324L52.9932 62.7188C52.9932 63.2109 52.9408 63.6667 52.8359 64.0859C52.7357 64.5007 52.5716 64.8607 52.3438 65.166C52.1159 65.4714 51.8174 65.7106 51.4482 65.8838C51.0791 66.0524 50.6302 66.1367 50.1016 66.1367C49.7415 66.1367 49.4111 66.0843 49.1104 65.9795C48.8141 65.8747 48.5589 65.7129 48.3447 65.4941C48.1305 65.2754 47.9642 64.9906 47.8457 64.6396C47.7318 64.2887 47.6748 63.8672 47.6748 63.375V58.6035H48.9395V63.3887C48.9395 63.7214 48.9759 63.9971 49.0488 64.2158C49.1263 64.43 49.2288 64.6009 49.3564 64.7285C49.4886 64.8516 49.6344 64.9382 49.7939 64.9883C49.958 65.0384 50.1266 65.0635 50.2998 65.0635C50.8376 65.0635 51.2637 64.9609 51.5781 64.7559C51.8926 64.5462 52.1182 64.266 52.2549 63.915C52.3962 63.5596 52.4668 63.1654 52.4668 62.7324ZM56.6846 60.0732V66H55.4131V58.6035H56.6162L56.6846 60.0732ZM56.4248 62.0215L55.8369 62.001C55.8415 61.4951 55.9076 61.028 56.0352 60.5996C56.1628 60.1667 56.3519 59.7907 56.6025 59.4717C56.8532 59.1527 57.1654 58.9066 57.5391 58.7334C57.9128 58.5557 58.3457 58.4668 58.8379 58.4668C59.1842 58.4668 59.5033 58.5169 59.7949 58.6172C60.0866 58.7129 60.3395 58.8656 60.5537 59.0752C60.7679 59.2848 60.9342 59.5537 61.0527 59.8818C61.1712 60.21 61.2305 60.6064 61.2305 61.0713V66H59.9658V61.1328C59.9658 60.7454 59.8997 60.4355 59.7676 60.2031C59.64 59.9707 59.4577 59.8021 59.2207 59.6973C58.9837 59.5879 58.7057 59.5332 58.3867 59.5332C58.013 59.5332 57.7008 59.5993 57.4502 59.7314C57.1995 59.8636 56.999 60.0459 56.8486 60.2783C56.6982 60.5107 56.5889 60.7773 56.5205 61.0781C56.4567 61.3743 56.4248 61.6888 56.4248 62.0215ZM61.2168 61.3242L60.3691 61.584C60.3737 61.1784 60.4398 60.7887 60.5674 60.415C60.6995 60.0413 60.8887 59.7087 61.1348 59.417C61.3854 59.1253 61.693 58.8952 62.0576 58.7266C62.4222 58.5534 62.8392 58.4668 63.3086 58.4668C63.7051 58.4668 64.056 58.5192 64.3613 58.624C64.6712 58.7288 64.931 58.8906 65.1406 59.1094C65.3548 59.3236 65.5166 59.5993 65.626 59.9365C65.7354 60.2738 65.79 60.6748 65.79 61.1396V66H64.5186V61.126C64.5186 60.7113 64.4525 60.39 64.3203 60.1621C64.1927 59.9297 64.0104 59.7679 63.7734 59.6768C63.541 59.5811 63.263 59.5332 62.9395 59.5332C62.6615 59.5332 62.4154 59.5811 62.2012 59.6768C61.987 59.7725 61.807 59.9046 61.6611 60.0732C61.5153 60.2373 61.4036 60.4264 61.3262 60.6406C61.2533 60.8548 61.2168 61.0827 61.2168 61.3242ZM67.6973 55.5H68.9688V64.5645L68.8594 66H67.6973V55.5ZM73.9658 62.2402V62.3838C73.9658 62.9215 73.902 63.4206 73.7744 63.8809C73.6468 64.3366 73.46 64.7331 73.2139 65.0703C72.9678 65.4076 72.667 65.6696 72.3115 65.8564C71.9561 66.0433 71.5482 66.1367 71.0879 66.1367C70.6185 66.1367 70.2061 66.057 69.8506 65.8975C69.4997 65.7334 69.2035 65.4987 68.9619 65.1934C68.7204 64.888 68.5267 64.5189 68.3809 64.0859C68.2396 63.653 68.1416 63.1654 68.0869 62.623V61.9941C68.1416 61.4473 68.2396 60.9574 68.3809 60.5244C68.5267 60.0915 68.7204 59.7223 68.9619 59.417C69.2035 59.1071 69.4997 58.8724 69.8506 58.7129C70.2015 58.5488 70.6094 58.4668 71.0742 58.4668C71.5391 58.4668 71.9515 58.5579 72.3115 58.7402C72.6715 58.918 72.9723 59.1732 73.2139 59.5059C73.46 59.8385 73.6468 60.2373 73.7744 60.7021C73.902 61.1624 73.9658 61.6751 73.9658 62.2402ZM72.6943 62.3838V62.2402C72.6943 61.8711 72.6602 61.5247 72.5918 61.2012C72.5234 60.873 72.4141 60.5859 72.2637 60.3398C72.1133 60.0892 71.915 59.8932 71.6689 59.752C71.4229 59.6061 71.1198 59.5332 70.7598 59.5332C70.4408 59.5332 70.1628 59.5879 69.9258 59.6973C69.6934 59.8066 69.4951 59.9548 69.3311 60.1416C69.167 60.3239 69.0326 60.5335 68.9277 60.7705C68.8275 61.0029 68.7523 61.2445 68.7021 61.4951V63.1426C68.7751 63.4616 68.8936 63.7692 69.0576 64.0654C69.2262 64.3571 69.4495 64.5964 69.7275 64.7832C70.0101 64.9701 70.3587 65.0635 70.7734 65.0635C71.1152 65.0635 71.4069 64.9951 71.6484 64.8584C71.8945 64.7171 72.0928 64.5234 72.2432 64.2773C72.3981 64.0312 72.512 63.7464 72.585 63.4229C72.6579 63.0993 72.6943 62.7529 72.6943 62.3838ZM78.6348 66.1367C78.1198 66.1367 77.6527 66.0501 77.2334 65.877C76.8187 65.6992 76.4609 65.4508 76.1602 65.1318C75.8639 64.8128 75.6361 64.4346 75.4766 63.9971C75.3171 63.5596 75.2373 63.0811 75.2373 62.5615V62.2744C75.2373 61.6729 75.3262 61.1374 75.5039 60.668C75.6816 60.194 75.9232 59.793 76.2285 59.4648C76.5339 59.1367 76.8802 58.8883 77.2676 58.7197C77.6549 58.5511 78.056 58.4668 78.4707 58.4668C78.9993 58.4668 79.4551 58.5579 79.8379 58.7402C80.2253 58.9225 80.542 59.1777 80.7881 59.5059C81.0342 59.8294 81.2165 60.2122 81.335 60.6543C81.4535 61.0918 81.5127 61.5703 81.5127 62.0898V62.6572H75.9893V61.625H80.248V61.5293C80.2298 61.2012 80.1615 60.8822 80.043 60.5723C79.929 60.2624 79.7467 60.0072 79.4961 59.8066C79.2454 59.6061 78.9036 59.5059 78.4707 59.5059C78.1836 59.5059 77.9193 59.5674 77.6777 59.6904C77.4362 59.8089 77.2288 59.9867 77.0557 60.2236C76.8825 60.4606 76.748 60.75 76.6523 61.0918C76.5566 61.4336 76.5088 61.8278 76.5088 62.2744V62.5615C76.5088 62.9124 76.5566 63.2428 76.6523 63.5527C76.7526 63.8581 76.8962 64.127 77.083 64.3594C77.2744 64.5918 77.5046 64.7741 77.7734 64.9062C78.0469 65.0384 78.3568 65.1045 78.7031 65.1045C79.1497 65.1045 79.528 65.0133 79.8379 64.8311C80.1478 64.6488 80.4189 64.4049 80.6514 64.0996L81.417 64.708C81.2575 64.9495 81.0547 65.1797 80.8086 65.3984C80.5625 65.6172 80.2594 65.7949 79.8994 65.9316C79.5439 66.0684 79.1224 66.1367 78.6348 66.1367ZM84.2539 59.7656V66H82.9893V58.6035H84.2197L84.2539 59.7656ZM86.5645 58.5625L86.5576 59.7383C86.4528 59.7155 86.3525 59.7018 86.2568 59.6973C86.1657 59.6882 86.0609 59.6836 85.9424 59.6836C85.6507 59.6836 85.3932 59.7292 85.1699 59.8203C84.9466 59.9115 84.7575 60.0391 84.6025 60.2031C84.4476 60.3672 84.3245 60.5632 84.2334 60.791C84.1468 61.0143 84.0898 61.2604 84.0625 61.5293L83.707 61.7344C83.707 61.2878 83.7503 60.8685 83.8369 60.4766C83.9281 60.0846 84.0671 59.7383 84.2539 59.4375C84.4408 59.1322 84.6777 58.8952 84.9648 58.7266C85.2565 58.5534 85.6029 58.4668 86.0039 58.4668C86.0951 58.4668 86.1999 58.4782 86.3184 58.501C86.4368 58.5192 86.5189 58.5397 86.5645 58.5625Z" fill="black"/>
<defs>
<filter id="filter0_d_53_57" x="0" y="0" width="351" height="108.412" filterUnits="userSpaceOnUse" color-interpolation-filters="sRGB">
<feFlood flood-opacity="0" result="BackgroundImageFix"/>
<feColorMatrix in="SourceAlpha" type="matrix" values="0 0 0 0 0 0 0 0 0 0 0 0 0 0 0 0 0 0 127 0" result="hardAlpha"/>
<feOffset dy="4"/>
<feGaussianBlur stdDeviation="5"/>
<feComposite in2="hardAlpha" operator="out"/>
<feColorMatrix type="matrix" values="0 0 0 0 0 0 0 0 0 0 0 0 0 0 0 0 0 0 0.1 0"/>
<feBlend mode="normal" in2="BackgroundImageFix" result="effect1_dropShadow_53_57"/>
<feBlend mode="normal" in="SourceGraphic" in2="effect1_dropShadow_53_57" result="shape"/>
</filter>
</defs>
</svg>
