<svg width="77" height="77" viewBox="0 0 77 77" fill="none" xmlns="http://www.w3.org/2000/svg">
<path d="M31.507 21.5222C33.7081 14.7479 43.2919 14.7479 45.493 21.5222C46.4773 24.5517 49.3005 26.6028 52.4859 26.6028C59.6088 26.6028 62.5704 35.7175 56.8078 39.9043C54.2308 41.7766 53.1524 45.0955 54.1368 48.125C56.3378 54.8993 48.5844 60.5325 42.8219 56.3457C40.2448 54.4734 36.7552 54.4734 34.1781 56.3457C28.4156 60.5325 20.6622 54.8993 22.8632 48.125C23.8476 45.0955 22.7692 41.7766 20.1922 39.9043C14.4296 35.7175 17.3912 26.6028 24.5141 26.6028C27.6995 26.6028 30.5227 24.5517 31.507 21.5222Z" fill="#E7F0FF"/>
<path d="M11.166 68.8333H52.8327" stroke="#292D32" stroke-width="1.5" stroke-miterlimit="10" stroke-linecap="round" stroke-linejoin="round"/>
<path d="M13.1465 68.8333L13.2507 43.7708C13.2507 42.5 13.8548 41.2917 14.8548 40.5001L29.4381 29.1459C30.9381 27.9792 33.0423 27.9792 34.5632 29.1459L49.1465 40.4792C50.1673 41.2709 50.7507 42.4791 50.7507 43.7708V68.8333" stroke="#292D32" stroke-width="1.5" stroke-miterlimit="10" stroke-linejoin="round"/>
<path d="M39.2923 45.9167H24.709C22.9798 45.9167 21.584 47.3125 21.584 49.0417V68.8334H42.4173V49.0417C42.4173 47.3125 41.0215 45.9167 39.2923 45.9167Z" stroke="#292D32" stroke-width="1.5" stroke-miterlimit="10" stroke-linecap="round" stroke-linejoin="round"/>
<path d="M27.834 56.8542V59.9792" stroke="#292D32" stroke-width="1.5" stroke-miterlimit="10" stroke-linecap="round" stroke-linejoin="round"/>
<path d="M28.875 38.625H35.125" stroke="#292D32" stroke-width="1.5" stroke-miterlimit="10" stroke-linecap="round" stroke-linejoin="round"/>
</svg>
