<svg width="77" height="77" viewBox="0 0 77 77" fill="none" xmlns="http://www.w3.org/2000/svg">
<path d="M31.507 21.5222C33.7081 14.7479 43.2919 14.7479 45.493 21.5222C46.4773 24.5517 49.3005 26.6028 52.4859 26.6028C59.6088 26.6028 62.5704 35.7175 56.8078 39.9043C54.2308 41.7766 53.1524 45.0955 54.1368 48.125C56.3378 54.8993 48.5844 60.5325 42.8219 56.3457C40.2448 54.4734 36.7552 54.4734 34.1781 56.3457C28.4156 60.5325 20.6622 54.8993 22.8632 48.125C23.8476 45.0955 22.7692 41.7766 20.1922 39.9043C14.4296 35.7175 17.3912 26.6028 24.5141 26.6028C27.6995 26.6028 30.5227 24.5517 31.507 21.5222Z" fill="#E7F0FF"/>
<path d="M26.1589 25.02C27.7725 23.66 30.3773 23.66 31.9449 25.02L35.5871 28.132C36.2786 28.7083 37.5926 29.1924 38.5147 29.1924H42.4335C44.877 29.1924 46.8825 31.1979 46.8825 33.6414V37.5603C46.8825 38.4823 47.3666 39.7732 47.9429 40.4648L51.0549 44.107C52.4149 45.7206 52.4149 48.3255 51.0549 49.893L47.9429 53.5352C47.3666 54.2268 46.8825 55.5177 46.8825 56.4397V60.3586C46.8825 62.8021 44.877 64.8076 42.4335 64.8076H38.5147C37.5926 64.8076 36.3017 65.2917 35.6101 65.868L31.9679 68.98C30.3543 70.34 27.7494 70.34 26.1819 68.98L22.5397 65.868C21.8482 65.2917 20.5342 64.8076 19.6352 64.8076H15.6011C13.1576 64.8076 11.1521 62.8021 11.1521 60.3586V56.4167C11.1521 55.5177 10.6911 54.2037 10.1148 53.5352L7.00276 49.87C5.66575 48.2794 5.66575 45.6976 7.00276 44.107L10.1148 40.4417C10.6911 39.7502 11.1521 38.4593 11.1521 37.5603V33.6645C11.1521 31.221 13.1576 29.2155 15.6011 29.2155H19.5891C20.5111 29.2155 21.8021 28.7314 22.4936 28.1551L26.1589 25.02Z" stroke="#292D32" stroke-width="1.5" stroke-linecap="round" stroke-linejoin="round"/>
<path d="M19 47L25.9918 54L40 40" stroke="#292D32" stroke-width="2" stroke-linecap="round" stroke-linejoin="round"/>
</svg>
