<svg width="77" height="77" viewBox="0 0 77 77" fill="none" xmlns="http://www.w3.org/2000/svg">
<path d="M31.507 21.5222C33.7081 14.7479 43.2919 14.7479 45.493 21.5222C46.4773 24.5517 49.3005 26.6028 52.4859 26.6028C59.6088 26.6028 62.5704 35.7175 56.8078 39.9043C54.2308 41.7766 53.1524 45.0955 54.1368 48.125C56.3378 54.8993 48.5844 60.5325 42.8219 56.3457C40.2448 54.4734 36.7552 54.4734 34.1781 56.3457C28.4156 60.5325 20.6622 54.8993 22.8632 48.125C23.8476 45.0955 22.7692 41.7766 20.1922 39.9043C14.4296 35.7175 17.3912 26.6028 24.5141 26.6028C27.6995 26.6028 30.5227 24.5517 31.507 21.5222Z" fill="#E7F0FF"/>
<path d="M39.2494 28.1667V49C39.2494 51.2917 37.3744 53.1667 35.0827 53.1667H12.166V39.875C13.6868 41.6875 16.0202 42.8125 18.6036 42.75C20.7077 42.7084 22.6035 41.8959 24.0202 40.5417C24.666 40 25.2077 39.3125 25.6244 38.5625C26.3744 37.2917 26.791 35.7916 26.7494 34.2291C26.6869 31.7916 25.6035 29.6459 23.916 28.1667H39.2494Z" stroke="#292D32" stroke-width="1.5" stroke-linecap="round" stroke-linejoin="round"/>
<path d="M53.8327 53.1667V59.4167C53.8327 62.875 51.041 65.6667 47.5827 65.6667H45.4994C45.4994 63.375 43.6244 61.5 41.3327 61.5C39.041 61.5 37.166 63.375 37.166 65.6667H28.8327C28.8327 63.375 26.9577 61.5 24.666 61.5C22.3743 61.5 20.4993 63.375 20.4993 65.6667H18.416C14.9577 65.6667 12.166 62.875 12.166 59.4167V53.1667H35.0827C37.3744 53.1667 39.2494 51.2917 39.2494 49V34.4167H43.0827C44.5827 34.4167 45.9577 35.2292 46.7077 36.5209L50.2701 42.75H47.5827C46.4369 42.75 45.4994 43.6875 45.4994 44.8334V51.0834C45.4994 52.2292 46.4369 53.1667 47.5827 53.1667H53.8327Z" stroke="#292D32" stroke-width="1.5" stroke-linecap="round" stroke-linejoin="round"/>
<path d="M24.6667 69.8333C26.9679 69.8333 28.8333 67.9679 28.8333 65.6667C28.8333 63.3655 26.9679 61.5 24.6667 61.5C22.3655 61.5 20.5 63.3655 20.5 65.6667C20.5 67.9679 22.3655 69.8333 24.6667 69.8333Z" stroke="#292D32" stroke-width="1.5" stroke-linecap="round" stroke-linejoin="round"/>
<path d="M41.3327 69.8333C43.6339 69.8333 45.4993 67.9679 45.4993 65.6667C45.4993 63.3655 43.6339 61.5 41.3327 61.5C39.0315 61.5 37.166 63.3655 37.166 65.6667C37.166 67.9679 39.0315 69.8333 41.3327 69.8333Z" stroke="#292D32" stroke-width="1.5" stroke-linecap="round" stroke-linejoin="round"/>
<path d="M53.8333 49V53.1667H47.5833C46.4375 53.1667 45.5 52.2292 45.5 51.0833V44.8333C45.5 43.6875 46.4375 42.75 47.5833 42.75H50.2708L53.8333 49Z" stroke="#292D32" stroke-width="1.5" stroke-linecap="round" stroke-linejoin="round"/>
<path d="M26.7507 34.4166C26.7507 36.9166 25.6465 39.1458 23.9173 40.6666C22.4382 41.9583 20.5215 42.75 18.4173 42.75C13.8132 42.75 10.084 39.0208 10.084 34.4166C10.084 31.7916 11.2923 29.4375 13.209 27.9167C14.6465 26.7708 16.459 26.0833 18.4173 26.0833C23.0215 26.0833 26.7507 29.8125 26.7507 34.4166Z" stroke="#292D32" stroke-width="1.5" stroke-miterlimit="10" stroke-linecap="round" stroke-linejoin="round"/>
<path d="M18.9382 31.8125V34.9375L16.334 36.5" stroke="#292D32" stroke-width="1.5" stroke-miterlimit="10" stroke-linecap="round" stroke-linejoin="round"/>
</svg>
