<svg width="77" height="77" viewBox="0 0 77 77" fill="none" xmlns="http://www.w3.org/2000/svg">
<path d="M31.507 21.5222C33.7081 14.7479 43.2919 14.7479 45.493 21.5222C46.4773 24.5517 49.3005 26.6028 52.4859 26.6028C59.6088 26.6028 62.5704 35.7175 56.8078 39.9043C54.2308 41.7766 53.1524 45.0955 54.1368 48.125C56.3378 54.8993 48.5844 60.5325 42.8219 56.3457C40.2448 54.4734 36.7552 54.4734 34.1781 56.3457C28.4156 60.5325 20.6622 54.8993 22.8632 48.125C23.8476 45.0955 22.7692 41.7766 20.1922 39.9043C14.4296 35.7175 17.3912 26.6028 24.5141 26.6028C27.6995 26.6028 30.5227 24.5517 31.507 21.5222Z" fill="#E7F0FF"/>
<path d="M40.584 52.2291C39.709 53.0833 39.209 54.3125 39.334 55.625C39.5215 57.875 41.584 59.5208 43.834 59.5208H47.7923V62C47.7923 66.3125 44.2715 69.8333 39.959 69.8333H16.0423C11.7298 69.8333 8.20898 66.3125 8.20898 62V47.9792C8.20898 43.6667 11.7298 40.1458 16.0423 40.1458H39.959C44.2715 40.1458 47.7923 43.6667 47.7923 47.9792V50.9792H43.584C42.4173 50.9792 41.3548 51.4375 40.584 52.2291Z" stroke="#292D32" stroke-width="1.5" stroke-linecap="round" stroke-linejoin="round"/>
<path d="M8.20898 49.8541V40.3334C8.20898 37.8543 9.72982 35.6458 12.0423 34.7708L28.584 28.5208C31.1673 27.5417 33.9382 29.4584 33.9382 32.2292V40.1459" stroke="#292D32" stroke-width="1.5" stroke-linecap="round" stroke-linejoin="round"/>
<path d="M49.9982 53.1045V57.3963C49.9982 58.5421 49.0815 59.4795 47.9148 59.5212H43.8315C41.5815 59.5212 39.519 57.8753 39.3315 55.6253C39.2065 54.3128 39.7065 53.0837 40.5815 52.2295C41.3523 51.4378 42.4148 50.9796 43.5815 50.9796H47.9148C49.0815 51.0212 49.9982 51.9586 49.9982 53.1045Z" stroke="#292D32" stroke-width="1.5" stroke-linecap="round" stroke-linejoin="round"/>
<path d="M17.584 49H32.1673" stroke="#292D32" stroke-width="1.5" stroke-linecap="round" stroke-linejoin="round"/>
</svg>
